<svg id="レイヤー_1" data-name="レイヤー 1" xmlns="http://www.w3.org/2000/svg" viewBox="0 0 70 70"><defs><style>.cls-1{fill:#c30d23;}</style></defs><path class="cls-1" d="M41.21,55.13c-.26-.36-.77-1.54-1.24-1.58-1.11-.09-1.21-1.66-.3-1.87V51.6c0-.08,0-.11.11-.15a.91.91,0,0,1,.16-.11,5.69,5.69,0,0,1,1-.61,2.61,2.61,0,0,0,.87-.6c.28-.24.57-.47.87-.68l.9-.57a6.27,6.27,0,0,0,1.29-.94,15.38,15.38,0,0,1,1.2-1c.08,0,.15-.12.27-.19a.28.28,0,0,0,.15-.27.73.73,0,0,0-.27-.45,4.87,4.87,0,0,0-.68-.6c-.26-.19-.49-.38-.71-.53a2.1,2.1,0,0,0-.53-.19,2,2,0,0,0-.38.26l-.45.46c-.15.15-.3.26-.41.37a.58.58,0,0,1-.27.19.65.65,0,0,1-.11-.41v-.45a5.34,5.34,0,0,1,0-.8,4.69,4.69,0,0,0,0-.75q0-.37,0-.75a4.33,4.33,0,0,1,0-.72v-.79a1.56,1.56,0,0,1,0-.68s0-.12.07-.15v-.12a9.91,9.91,0,0,0,0-1.09c0-.38-.07-.75-.07-1.09a1.28,1.28,0,0,1,.07-.34.62.62,0,0,0,0-.27,8.34,8.34,0,0,0,0-1c0-.34-.07-.72-.07-1.06a2.7,2.7,0,0,1,.07-.41l.17.08c-.58-.92-.4-2-.24-3.36h0v-.12l-1-.76a1.83,1.83,0,0,1-.38-.23.65.65,0,0,1-.3-.22.92.92,0,0,1-.34-.31l-.41-.3A19.58,19.58,0,0,1,37.91,28c-.75-.72-1.47-1.47-2.11-2.19a4.47,4.47,0,0,1-.42-.45,4.38,4.38,0,0,0-.41-.45,2.19,2.19,0,0,1-.34-.46,4.35,4.35,0,0,0-.34-.41,1,1,0,0,0-.57-.26,3.86,3.86,0,0,0-.68,0h-.82a5.1,5.1,0,0,0-.68-.13V23.3c-.07-.34-.15-.67-.22-1.09A10,10,0,0,0,31,21a7.14,7.14,0,0,0-.27-.72L30.53,20a.43.43,0,0,1-.16-.3,8.34,8.34,0,0,1,0-1,9.37,9.37,0,0,0,0-1.06,4.41,4.41,0,0,1,.08-.72,5.51,5.51,0,0,0,.07-.71,1.85,1.85,0,0,0-.15-.57,4.85,4.85,0,0,0,.08-.53.42.42,0,0,1,.22-.41h3.81a2.72,2.72,0,0,1,.57,0,1.89,1.89,0,0,0,.53.08,9.91,9.91,0,0,0,1.09,0,9.91,9.91,0,0,1,1.09,0h1a7.53,7.53,0,0,0,1,0,2.62,2.62,0,0,0,.56,0,2.71,2.71,0,0,1,.57,0,3,3,0,0,1,.6,0,2.71,2.71,0,0,0,.57,0,6.17,6.17,0,0,0,.86,0c.27,0,.42-.22.42-.6v-.34a1,1,0,0,1,0-.34,1.41,1.41,0,0,1,0-.41v-.46a3.38,3.38,0,0,1-.11-.34.48.48,0,0,0-.34-.11h-.42a1.69,1.69,0,0,1-.45,0,3.08,3.08,0,0,1-.68-.08,3.86,3.86,0,0,0-.68,0,.57.57,0,0,0-.26,0,1.22,1.22,0,0,0-.38.07,1.23,1.23,0,0,1-.38.08,1,1,0,0,1-.34,0,1,1,0,0,0-.34,0h-1a2,2,0,0,0-.49,0,1.77,1.77,0,0,1-.46,0,1.73,1.73,0,0,1-.64-.12,4.64,4.64,0,0,0-.64-.07,4.64,4.64,0,0,0-.64.07,4.48,4.48,0,0,1-.64.08H32.14a2.57,2.57,0,0,1-1.44-.3c-.26-.19-.37-.64-.37-1.36V10a1.55,1.55,0,0,1,.11-.56,1.89,1.89,0,0,0,.08-.53,8.34,8.34,0,0,0,0-1,8.34,8.34,0,0,1,0-1,3,3,0,0,1,0-.6,2.72,2.72,0,0,0,0-.57.56.56,0,0,0-.12-.41A.84.84,0,0,0,30,5.25h-.57a2.62,2.62,0,0,1-.56,0,4.81,4.81,0,0,0-1,.07c-.15,0-.22.34-.22.83a3.53,3.53,0,0,0,0,.46v.45a4.33,4.33,0,0,1,0,.72,3.36,3.36,0,0,0-.08.71,4.24,4.24,0,0,0,.11.94,3.38,3.38,0,0,1,.12,1,1.3,1.3,0,0,1-.08.34,1.54,1.54,0,0,0-.11.64.77.77,0,0,1-.15.53,1.11,1.11,0,0,1-.61.15h-.75l-.75.12a1.59,1.59,0,0,1-.38.07,2.35,2.35,0,0,1-.83-.11,3.83,3.83,0,0,0-.68-.08h-2a.57.57,0,0,0-.26,0,.76.76,0,0,1-.3,0,1.48,1.48,0,0,1-.42,0H20a1.48,1.48,0,0,0-.42,0,1.41,1.41,0,0,1-.41,0,1.78,1.78,0,0,1-.45-.08,2,2,0,0,0-.49-.07h-.91a6.84,6.84,0,0,1-.9.08H11.57a1,1,0,0,1-.34,0h-.45a1.69,1.69,0,0,0-.45,0,.39.39,0,0,0-.23.19,1,1,0,0,0,0,.34,1.53,1.53,0,0,0,.12.6,4.64,4.64,0,0,1,.07.64c0,.11,0,.23-.07.34a.31.31,0,0,0,0,.19c0,.19.15.26.45.3a3,3,0,0,0,.6,0,3.53,3.53,0,0,0,.65,0h.64a4.7,4.7,0,0,1,.75,0,4.33,4.33,0,0,0,.72,0,.57.57,0,0,0,.26,0h.53a2,2,0,0,0,.49,0h.94a2.35,2.35,0,0,1,.53,0,2,2,0,0,0,.49,0,1.69,1.69,0,0,0,.45,0,1.48,1.48,0,0,0,.42,0,8.39,8.39,0,0,1,1.66-.07h6.49a1,1,0,0,0,.34,0,1,1,0,0,1,.34,0c.3,0,.49,0,.56.11a.82.82,0,0,1,.12.53,8.34,8.34,0,0,1,0,1,9.28,9.28,0,0,0-.08,1v.27a.11.11,0,0,1,0,.11.11.11,0,0,0,0,.11v.12a.21.21,0,0,1-.15.22.76.76,0,0,1-.3,0,2,2,0,0,1-.49,0,2,2,0,0,0-.49,0h-.46a1.15,1.15,0,0,0-.41.08,4.23,4.23,0,0,1-.57.19,4,4,0,0,0-.53.3,14,14,0,0,0-1.47,1.17,5.12,5.12,0,0,0-1.09,1.51,6.3,6.3,0,0,0-.3,1.05,5.78,5.78,0,0,0-.11,1.1V24a3.08,3.08,0,0,0,.07.68,5.35,5.35,0,0,0,.83,2,3.38,3.38,0,0,0,1.62,1.39,2.25,2.25,0,0,1,.45.19.74.74,0,0,0,.5.15,1,1,0,0,0,.52-.19,1.51,1.51,0,0,0,.38-.49,2.66,2.66,0,0,0,.26-.6,3.08,3.08,0,0,0,.08-.53.73.73,0,0,0-.26-.6,4.18,4.18,0,0,1-.65-.45,3.64,3.64,0,0,1-.6-.64,1.56,1.56,0,0,1-.3-1,6.72,6.72,0,0,1,.11-1.1,3.4,3.4,0,0,1,1.06-2,1.65,1.65,0,0,1,1.05-.34,2.08,2.08,0,0,1,.95.23,4.54,4.54,0,0,1,.75.64,3.63,3.63,0,0,1,.49.83,3,3,0,0,1,.19.94,1,1,0,0,1,0,.34,1,1,0,0,0,0,.34.62.62,0,0,0,0,.27,1,1,0,0,0,.07.34,1.41,1.41,0,0,1,0,.41,7.53,7.53,0,0,1-.08.83,5,5,0,0,1-.26.83,8.26,8.26,0,0,1-.34.87c-.19.37-.34.75-.53,1.13s-.34.72-.52,1a3.58,3.58,0,0,1-.53.76l-1.67,1.68a.91.91,0,0,1-.45.27,2.22,2.22,0,0,0-.49.3,9.08,9.08,0,0,1-1.06.68c-.33.19-.71.37-1.13.56-.11,0-.22.12-.3.15a2.07,2.07,0,0,1-.34.15,1.38,1.38,0,0,1-.56.12,1,1,0,0,0-.53.15,2.76,2.76,0,0,1-.68.3,2.65,2.65,0,0,1-.79.11,3.09,3.09,0,0,0-1,.19.81.81,0,0,1-.37.12c-.19.07-.3.15-.3.22s0,.11.15.23a.77.77,0,0,1,.22.34,8.75,8.75,0,0,1,.3.86,2.79,2.79,0,0,0,.38.8c0,.07.19.11.38.11a2.21,2.21,0,0,0,.72-.11,2.42,2.42,0,0,1,.64-.27l.6-.11.6-.11a1.63,1.63,0,0,0,.34-.19,1.63,1.63,0,0,1,.34-.19,1.77,1.77,0,0,1,.46-.08l.45-.11h.09v.27a2,2,0,0,0,0,.49v1.69c0,.45-.07.91-.07,1.36a1.59,1.59,0,0,0,.07.38,1.7,1.7,0,0,1,0,.45v3.66a.81.81,0,0,0,0,.22.45.45,0,0,1,0,.23v7.39a.76.76,0,0,1,0,.3,1.93,1.93,0,0,0,0,.34v.72l-.12.68a1.17,1.17,0,0,0-.49.11,1.24,1.24,0,0,1-.53.12h-.11a1,1,0,0,0-.53,0h-.07a1.08,1.08,0,0,1,.1.35,1,1,0,0,1,.33.31,2.45,2.45,0,0,0,1.4,1,18.15,18.15,0,0,0,2.21-.09l.29-.21A.61.61,0,0,1,25,56c.13-.63.25-1.26.37-1.89a.31.31,0,0,1,.06-.13H25.4a5,5,0,0,0,0-1.09,9.43,9.43,0,0,1-.07-1.06.81.81,0,0,1,0-.22.62.62,0,0,0,0-.27.76.76,0,0,0,0-.3.76.76,0,0,1,0-.3.89.89,0,0,1,0-.23.41.41,0,0,0,0-.22,5.75,5.75,0,0,0,0-.83c0-.28,0-.55,0-.83a1,1,0,0,1,0-.34,1,1,0,0,0,0-.34,2.35,2.35,0,0,0,0-.53,2,2,0,0,1,0-.49.57.57,0,0,1,.11-.42c0-.07.19-.11.38-.11a5.75,5.75,0,0,1,.83,0,5.21,5.21,0,0,0,.79,0h3.13a.2.2,0,0,1,.15,0,.14.14,0,0,0,.07.11,10.93,10.93,0,0,1,.83,1.1q.39.59.72,1.2a3.52,3.52,0,0,0,.49.72c.53.56,1.09,1.13,1.66,1.66.26.22.64.53,1.09.94a9.24,9.24,0,0,0,1.06.91c.34.18.64.41.94.6a7.52,7.52,0,0,0,1,.64,5.26,5.26,0,0,0,.67.34c.27.11.49.23.72.34a2.51,2.51,0,0,1,.45.26,4.36,4.36,0,0,1,.42.23c.41.19.82.34,1.2.49A7.46,7.46,0,0,1,41.21,55.13ZM27.66,33.4a6,6,0,0,0,.53-.6c.15-.19.3-.38.49-.6s.38-.53.64-.87c.12-.11.23-.26.34-.38a1.76,1.76,0,0,0,.27-.34,11,11,0,0,0,.53-1.09c.18-.45.33-.94.49-1.47s.3-1,.41-1.47v-.14a3.64,3.64,0,0,1,1.46.23l.19.15c.19.23.42.46.68.72l.68.79a2.84,2.84,0,0,0,.49.49c.57.57,1.17,1.1,1.74,1.66A16,16,0,0,0,38.44,32c.15.11.3.19.45.3l.45.34c.11.11.26.19.38.3l.37.34c.12.07.31.15.53.26s.34.19.38.31a.14.14,0,0,1-.15,0h-.19a10.65,10.65,0,0,1-1.13,0,10.65,10.65,0,0,0-1.13,0,1.21,1.21,0,0,0-.38,0,1.22,1.22,0,0,1-.38.07,3.38,3.38,0,0,1-.45,0,1.69,1.69,0,0,0-.45,0,.61.61,0,0,0-.27,0,.57.57,0,0,1-.26,0,5.69,5.69,0,0,1-.83-.07,5.75,5.75,0,0,0-.83,0,.31.31,0,0,0-.19,0,.27.27,0,0,1-.22-.08.35.35,0,0,1-.08-.26v-1a4.94,4.94,0,0,0-.23-1.66c-.15-.41-.64-.6-1.43-.6h-.6c-.34,0-.49.12-.49.31a6.76,6.76,0,0,0,0,.9v.94a2.35,2.35,0,0,1,0,.53,2.8,2.8,0,0,0-.08.57.19.19,0,0,0,0,.15.31.31,0,0,1,0,.19H27.54a.61.61,0,0,0-.27,0H27a3.65,3.65,0,0,0,.65-.46ZM25.42,37v-.26a.57.57,0,0,1,0-.26v-.08c0-.08,0-.08.16-.11s.22,0,.33-.08h2.15a1.21,1.21,0,0,0,.38,0h.79a2,2,0,0,0,.49,0h3.47a.76.76,0,0,0,.3,0,.81.81,0,0,1,.31,0h.83a5.75,5.75,0,0,0,.83,0,5.75,5.75,0,0,0,.83,0,5.75,5.75,0,0,1,.83,0h1.5l.83.12c.27.07.38.19.38.34V37a1,1,0,0,0,0,.34,2.8,2.8,0,0,0,.08.57,2.62,2.62,0,0,1,0,.56,1.69,1.69,0,0,1,0,.45H33.2a5.75,5.75,0,0,0-.83,0,5.69,5.69,0,0,1-.83.07.76.76,0,0,1-.3,0,1,1,0,0,0-.34,0,.57.57,0,0,0-.26,0,.89.89,0,0,1-.23,0A9.79,9.79,0,0,1,29,38.87a9.75,9.75,0,0,0-1.43,0,5.75,5.75,0,0,0-.83,0,5.69,5.69,0,0,1-.83.07c-.27,0-.42,0-.42-.15a1.51,1.51,0,0,1,0-.52V38a.31.31,0,0,1,0-.19.76.76,0,0,1,0-.3.62.62,0,0,0,0-.27A.67.67,0,0,0,25.42,37Zm7.77,7.06a2.62,2.62,0,0,0-.56,0,2.35,2.35,0,0,0-.53,0,3.7,3.7,0,0,1-.57.07,1.09,1.09,0,0,1-.3-.07.76.76,0,0,0-.3,0H28.71a.45.45,0,0,0-.23,0,.77.77,0,0,1-.26.07H26.48a1.21,1.21,0,0,1-.38,0h-.49s-.07,0-.11-.16-.08-.15-.08-.18V43.2a3,3,0,0,1,0-.6c0-.68.15-1.06.41-1.17a3.76,3.76,0,0,1,1.25-.15.5.5,0,0,0,.26-.08.57.57,0,0,1,.26,0h3.56a2.74,2.74,0,0,1,.64.08h.26a.62.62,0,0,0,.27,0H36a2.8,2.8,0,0,0,.57-.08,2.35,2.35,0,0,1,.53,0,3,3,0,0,1,.6,0,3.09,3.09,0,0,0,.6.08.13.13,0,0,0,.12,0h.3c.56,0,.9.11,1,.3a2.93,2.93,0,0,1,.15,1.1,1.32,1.32,0,0,1-.27.94,1.24,1.24,0,0,1-.67.45,2.44,2.44,0,0,1-1,.15,8.34,8.34,0,0,1-1,0h-.49a2.35,2.35,0,0,1-.53,0,1.78,1.78,0,0,1-.45-.08H35a3.42,3.42,0,0,0-.64,0,3.86,3.86,0,0,1-.68,0,3,3,0,0,1-.52,0Zm4.91,5.65c-.26.16-.53.31-.8.45a1.88,1.88,0,0,1-.56-.41,7.75,7.75,0,0,1-.83-.79,8.82,8.82,0,0,1-.79-.83c-.27-.27-.42-.45-.53-.57a2.69,2.69,0,0,1-.3-.37,1.65,1.65,0,0,0-.27-.38,1.46,1.46,0,0,1-.26-.34,1.69,1.69,0,0,1,.45,0,.61.61,0,0,1,.27,0h6.71a1.41,1.41,0,0,1,.41,0,1.21,1.21,0,0,0,.38,0h.19l-.38.3a.84.84,0,0,1-.38.26,5,5,0,0,0-.37.42,2.05,2.05,0,0,1-.38.34,5.39,5.39,0,0,0-.79.56l-.91.68Z" transform="translate(0.03 0.06)"/><path class="cls-1" d="M32.6,50.92a1.82,1.82,0,0,0-.64.19c-.27.15-.57.3-.87.49s-.57.41-.83.6a1.76,1.76,0,0,0-.49.45,3.57,3.57,0,0,0-.3.38,3.57,3.57,0,0,1-.3.38,2.58,2.58,0,0,1-.65.49,2.42,2.42,0,0,0-.6.45l-.34.34c-.11.11-.26.23-.38.34L26,55.78a9.5,9.5,0,0,1-1.24.61l-.57.22a1.33,1.33,0,0,1-.56.15h-1a3.44,3.44,0,0,1-1.1-.15,2.56,2.56,0,0,1-.9-.42,1,1,0,0,1-.38-.83,2.26,2.26,0,0,1,.34-1.13,1.12,1.12,0,0,1,1-.57,2.66,2.66,0,0,1,.79.12,2.79,2.79,0,0,0,.76.11,3.69,3.69,0,0,0,.94-.15A4,4,0,0,0,25,53.4a2.24,2.24,0,0,0,.53-.49,1.76,1.76,0,0,1,.45-.49c.34-.3.72-.6,1.06-.94s.64-.61,1-1a1.18,1.18,0,0,1,.37-.26.48.48,0,0,0,.27-.19l.34-.34a3.17,3.17,0,0,1,.3-.34,2.32,2.32,0,0,1,.75-.49l1-.34a4.82,4.82,0,0,1,1-.22,7.53,7.53,0,0,1,.83-.08,6.81,6.81,0,0,1,3.17.68A8.5,8.5,0,0,1,39,51.77a3.72,3.72,0,0,0,.49.75,6.9,6.9,0,0,0,.53.68c.19.23.38.41.56.6a3.32,3.32,0,0,1,.53.53l.61.83a5.29,5.29,0,0,0,.6.83,7.83,7.83,0,0,0,1,.94c.38.3.76.61,1.1.91s.87.71,1.28,1a12.2,12.2,0,0,0,1.36,1,1.14,1.14,0,0,0,.56.19,1.65,1.65,0,0,1,.61.18,5.88,5.88,0,0,0,1.58.53,14.79,14.79,0,0,0,1.62.27l.83.11a5.69,5.69,0,0,0,.83.07,1,1,0,0,0,.34,0H54a.21.21,0,0,1,.19.11c.11.08.18.26.18.57a2.29,2.29,0,0,0,0,.64.18.18,0,0,0,.08.15.31.31,0,0,1,0,.19,1.3,1.3,0,0,1-.08.34c0,.11-.11.26-.15.37-.19.46-.45.68-.75.72a8,8,0,0,1-1.1.07,2.43,2.43,0,0,1-1-.22,3.22,3.22,0,0,0-.87-.19.2.2,0,0,1-.23,0h-.22a2.07,2.07,0,0,1-.49-.12,6.72,6.72,0,0,1-.87-.18l-.83-.23c-.27-.08-.45-.11-.53-.15A1.14,1.14,0,0,1,47,63a.82.82,0,0,0-.41-.22,6,6,0,0,1-.72-.23,1,1,0,0,1-.64-.34,6.79,6.79,0,0,0-.75-.41,3,3,0,0,1-.72-.46,13,13,0,0,1-1.36-1.09c-.45-.38-.9-.79-1.32-1.21a1.7,1.7,0,0,1-.26-.34,1.93,1.93,0,0,0-.27-.3,15.94,15.94,0,0,1-1.84-2.26,1,1,0,0,1-.15-.34.88.88,0,0,0-.19-.34c-.19-.26-.49-.64-.83-1.13s-.72-.91-1.1-1.4a10.13,10.13,0,0,0-1.2-1.24A4.08,4.08,0,0,0,34.17,51,4.33,4.33,0,0,0,33,50.89Zm14.55,6.3a.6.6,0,0,1-.34.11.72.72,0,0,1-.41,0H46a1,1,0,0,0-.34,0,1,1,0,0,1-.34,0c-.07,0-.11-.08-.15-.23a1.76,1.76,0,0,1-.07-.45,1.7,1.7,0,0,1,0-.45,1.5,1.5,0,0,1,0-.3v-.27a10,10,0,0,1,.08-1.09,9.45,9.45,0,0,0,.08-1.06V52.35a.31.31,0,0,0,0-.19V52a.31.31,0,0,1,0-.19,2.64,2.64,0,0,1,.08-.49.3.3,0,0,1,.33-.27h.15c.15,0,.27,0,.31.08h.37a.5.5,0,0,0,.38,0h.23a.18.18,0,0,1,.11.19.31.31,0,0,1,0,.19.31.31,0,0,0,0,.19v.18a2.71,2.71,0,0,0,.11.8,5.27,5.27,0,0,1,.07.79,6.73,6.73,0,0,1-.07,1,8.42,8.42,0,0,0-.08,1,3.4,3.4,0,0,0,.08.64,4.15,4.15,0,0,1,.07.79A.36.36,0,0,1,47.15,57.22Zm2.68.19a.11.11,0,0,1-.11,0s-.08,0-.08-.11V57a1.41,1.41,0,0,1,0-.41,1.48,1.48,0,0,0,0-.42,6.84,6.84,0,0,0-.08-.9c0-.31-.07-.61-.07-.91a4.09,4.09,0,0,1,.07-.6,2.8,2.8,0,0,0,.08-.57V51.7c0-.26.07-.41.22-.49a3.07,3.07,0,0,1,.53-.07h1.06c.19,0,.3,0,.26.11a1,1,0,0,0,0,.34,4.41,4.41,0,0,0,.08.72,4.21,4.21,0,0,1,0,.71v.38a1.48,1.48,0,0,0,0,.42.64.64,0,0,0,.08.3,1,1,0,0,1,0,.34,1.41,1.41,0,0,1,0,.41,1.7,1.7,0,0,0,0,.45,3.53,3.53,0,0,0,0,.65v1a.18.18,0,0,1-.16.18l-.37.12-.42.11H49.84Z" transform="translate(0.03 0.06)"/><path class="cls-1" d="M57.41,47.9h-.3a5.21,5.21,0,0,1-.79,0h-.8a3.42,3.42,0,0,0-.64,0,3.75,3.75,0,0,1-.67,0h-.16a5.92,5.92,0,0,0-.34-2A12.82,12.82,0,0,0,52.84,44a4,4,0,0,0-.68-.91l-.83-.83-.83-.83c-.3-.26-.6-.52-.94-.79h-.19a8,8,0,0,0-1-.83c-.38-.22-.75-.45-1.09-.68a3,3,0,0,1-.68-.49,3,3,0,0,0-.68-.49,10.9,10.9,0,0,1-1.13-.79,9.74,9.74,0,0,1-1.13-1,5.38,5.38,0,0,1-.94-1.13A4.21,4.21,0,0,1,42.15,34a7.91,7.91,0,0,1-.19-.91,4.79,4.79,0,0,1,.11-1,6,6,0,0,0,.16-.94v-.49a.8.8,0,0,1,.11-.34c.07-.15.15-.3.26-.49a1.81,1.81,0,0,1,.3-.41,1.31,1.31,0,0,0,.19-.27,2.11,2.11,0,0,1,.19-.23.41.41,0,0,0,.19-.18,26.91,26.91,0,0,1,2-2.64,8.74,8.74,0,0,1,2.56-2c.12,0,.3-.11.53-.34l.45-.45.42-.42a3.6,3.6,0,0,1,.41-.37l.53-.38a7.81,7.81,0,0,0,.75-.53,4.29,4.29,0,0,0,.68-.53c.19-.19.31-.3.31-.41A.44.44,0,0,0,52,20.3a1.93,1.93,0,0,0-.3-.27,3.6,3.6,0,0,1-.41-.37,3,3,0,0,1-.42-.38c-.15-.21-.28-.42-.41-.64a5.32,5.32,0,0,1-.49-.83,5,5,0,0,1-.42-.91,2,2,0,0,1-.19-.67.4.4,0,0,1,.19-.31,2.07,2.07,0,0,1,.34-.15,4.31,4.31,0,0,0,.61-.19,3,3,0,0,1,.6-.18l.34-.08a.27.27,0,0,1,.26.23,2.77,2.77,0,0,0,.12.41,8.38,8.38,0,0,0,.79,1.55,2.72,2.72,0,0,0,1.36,1,3,3,0,0,0,.6.18,1.53,1.53,0,0,0,.6.12,1.13,1.13,0,0,0,.57-.15,1.38,1.38,0,0,1,.56-.12.79.79,0,0,1,.46.19,4.47,4.47,0,0,1,.45.42,4,4,0,0,1,.3.53,1.17,1.17,0,0,1,.11.49.9.9,0,0,1-.26.64,3.53,3.53,0,0,1-.68.6,7.43,7.43,0,0,1-.75.49c-.27.19-.49.3-.68.42a1.1,1.1,0,0,0-.38.33,2.26,2.26,0,0,1-.45.31c-.42.18-.79.41-1.21.6a8.94,8.94,0,0,0-1.17.75,3.28,3.28,0,0,0-.34.31,3.6,3.6,0,0,0-.41.37c-.15.15-.3.27-.42.38a1.33,1.33,0,0,1-.3.23,1.11,1.11,0,0,1-.34.18,1.46,1.46,0,0,0-.38.27,1.87,1.87,0,0,0-.26.3,1.7,1.7,0,0,1-.26.34,1.61,1.61,0,0,1-.61.38,2.21,2.21,0,0,0-.6.41c-.26.27-.6.64-1,1.1A13.67,13.67,0,0,0,46,30.05a10.5,10.5,0,0,0-.86,1.58,3.56,3.56,0,0,0-.34,1.4v.15a4.57,4.57,0,0,0,.8,1.2,9.44,9.44,0,0,0,1,1,6.68,6.68,0,0,1,.57.49,2.58,2.58,0,0,0,.6.49,5.39,5.39,0,0,0,.68.34c.23.11.45.23.64.34a4,4,0,0,1,.6.42,2,2,0,0,0,.61.34,1.19,1.19,0,0,1,.26.11l.27.11a3.25,3.25,0,0,1,.94.79,3.24,3.24,0,0,0,.9.83c.34.19.65.42,1,.61a3.75,3.75,0,0,1,1.17,1.24,3.5,3.5,0,0,0,.31.53c.22.34.41.64.6.9a9.1,9.1,0,0,1,.53,1c.19.36.22.46.37.76a8.58,8.58,0,0,1,.38,1c.11.32.19.68.3,1a3.51,3.51,0,0,1,.12.79A.59.59,0,0,1,57.41,47.9Zm.75-18h-.22c-.27,0-.45,0-.49-.15a1,1,0,0,1-.11-.57V29a.79.79,0,0,0,.08-.26s0-.11.07-.15a.13.13,0,0,1,0-.12v-.18a9.32,9.32,0,0,0-.15-1,7.45,7.45,0,0,1-.08-.95,3.86,3.86,0,0,1,0-.68,3.42,3.42,0,0,0,0-.64V24.6a1.21,1.21,0,0,1,0-.38c0-.26.08-.41.26-.45a2.71,2.71,0,0,1,.57,0h.3c.49,0,.79.12.91.38a4.2,4.2,0,0,1,.11,1.06v1.5l-.11.16a4.09,4.09,0,0,1,.07.6v1.85a1.13,1.13,0,0,1,0,.26.46.46,0,0,1-.15.26.18.18,0,0,1-.15.08.31.31,0,0,1-.19,0Zm5.06.07a1,1,0,0,0-.34,0,1,1,0,0,1-.34,0c-.23,0-.34-.08-.38-.19a1.69,1.69,0,0,1,0-.45,8.34,8.34,0,0,1,0-1v-.95a3,3,0,0,1,0-.6,3,3,0,0,0,0-.6,3.42,3.42,0,0,0,0-.64,2.82,2.82,0,0,1-.08-.65.76.76,0,0,1,0-.3,1.15,1.15,0,0,1,0-.37,1.35,1.35,0,0,1,.11-.34.22.22,0,0,1,.23-.15h.19l.34.07h.37a.31.31,0,0,0,.19,0h.15c.15,0,.27.12.38.34a4.33,4.33,0,0,1,.19.79,6.31,6.31,0,0,1,0,.87v1.85a1,1,0,0,1-.08.38.84.84,0,0,0-.11.41,2.63,2.63,0,0,0,.07.49,1.62,1.62,0,0,1,.08.49v.38c0,.08-.11.11-.3.11Z" transform="translate(0.03 0.06)"/><path class="cls-1" d="M35,69.94a35,35,0,1,1,35-35,35,35,0,0,1-35,35ZM35,3A32,32,0,1,0,67,35,32,32,0,0,0,35,3Z" transform="translate(0.03 0.06)"/></svg>