<svg id="レイヤー_1" data-name="レイヤー 1" xmlns="http://www.w3.org/2000/svg" viewBox="0 0 238.92 69.94"><defs><style>.cls-1{fill:#231815;}.cls-2{fill:#c30d23;}</style></defs><path class="cls-1" d="M311.38,187.52a4,4,0,0,1,.64-.07,5.17,5.17,0,0,1,.71.07,3.15,3.15,0,0,0,.67.08,1.57,1.57,0,0,0,.41,0,1.2,1.2,0,0,1,.38,0,2,2,0,0,1,.67.12,3.6,3.6,0,0,0,.63.18l.86.11c.26,0,.56.12.82.15s.34.12.53.15a1.6,1.6,0,0,0,.48.19,3.11,3.11,0,0,0,.49.11c.22,0,.44.11.63.15a4.67,4.67,0,0,1,.56.26.5.5,0,0,1,.22.41,1.15,1.15,0,0,1-.14.49,5.33,5.33,0,0,1-.38.71,4.29,4.29,0,0,1-.45.63.67.67,0,0,1-.44.26.42.42,0,0,1-.34-.15.65.65,0,0,0-.37-.11c-.12,0-.23.15-.34.41a1.69,1.69,0,0,0-.22.6,3.58,3.58,0,0,0-.27.56,4.12,4.12,0,0,1-.29.6c-.34.48-.64,1-.94,1.49s-.63,1-1,1.49c-.11.12-.18.27-.3.42a1,1,0,0,0-.18.48.64.64,0,0,0,.22.41,1.67,1.67,0,0,0,.49.41,3,3,0,0,0,.52.3.82.82,0,0,0,.41.15,1.41,1.41,0,0,0,.45.3,1.43,1.43,0,0,1,.41.26c.26.19.48.37.71.56s.45.37.71.56a4.21,4.21,0,0,0,.56.41,2.92,2.92,0,0,1,.52.45,2.45,2.45,0,0,1,.75.48l.63.64a3.38,3.38,0,0,0,.79.67,4.68,4.68,0,0,1,.67.75c0,.07.11.22.22.45s.26.44.37.67.23.48.34.67a1.35,1.35,0,0,1,.15.41,1.17,1.17,0,0,1,0,.37v1.12a.27.27,0,0,1,0,.19.21.21,0,0,0,0,.15,1.78,1.78,0,0,0,.08.45,1.71,1.71,0,0,1,0,.45c0,.18,0,.3-.15.33a1.61,1.61,0,0,1-.49.08,1.17,1.17,0,0,1-.37,0H322a1.68,1.68,0,0,0-.75.15,2,2,0,0,1-.56.19c-.19,0-.26-.15-.3-.45a5.25,5.25,0,0,1-.07-.6c0-.11,0-.15,0-.19a.43.43,0,0,1,0-.22.27.27,0,0,0,0-.19,3,3,0,0,0-.11-.52c-.08-.26-.15-.52-.27-.82s-.18-.56-.29-.82l-.23-.49a2.67,2.67,0,0,0-.63-.67c-.26-.19-.49-.41-.75-.6s-.67-.56-1.16-1-1-.86-1.53-1.27-1.08-.74-1.6-1.08a2.85,2.85,0,0,0-1.35-.45.72.72,0,0,0-.48.19,2.24,2.24,0,0,0-.38.45,5,5,0,0,1-.52.59c-.26.27-.52.53-.82.79a10.31,10.31,0,0,0-.9.78,5.38,5.38,0,0,1-.71.56,6.09,6.09,0,0,0-.56.41c-.18.15-.37.3-.52.45s-.11.15-.15.23a.71.71,0,0,1-.26.18,1.9,1.9,0,0,1-.56.23,3,3,0,0,0-.52.29,5.81,5.81,0,0,0-.67.56,3.33,3.33,0,0,1-.68.53,1.35,1.35,0,0,1-.33.18c-.11,0-.26.12-.38.15s-.37.23-.56.34-.41.19-.59.3l-.34.11c-.11,0-.22.11-.34.15l-.26.07c-.11.08-.26.15-.37.23a2.78,2.78,0,0,1-.37.26,1.27,1.27,0,0,1-.3.19A8.53,8.53,0,0,1,299,209c-.68.18-1.35.41-2.06.59a3.77,3.77,0,0,0-.78.34,1.48,1.48,0,0,1-.82.26.59.59,0,0,1-.56-.41c-.12-.19-.26-.49-.45-.86a1.92,1.92,0,0,1-.3-.86.44.44,0,0,1,.22-.37,2.18,2.18,0,0,1,.53-.26,2.84,2.84,0,0,1,.56-.19,4,4,0,0,0,.48-.15,1,1,0,0,1,.34-.07.54.54,0,0,0,.33,0,1.58,1.58,0,0,1,.3-.15,3.14,3.14,0,0,1,.41-.22c.12-.08.27-.15.38-.23a.61.61,0,0,0,.18-.15,2,2,0,0,1,.56-.22l.6-.11c.11,0,.26-.12.37-.15s.23-.12.34-.15a8.33,8.33,0,0,0,1.2-.67,11.24,11.24,0,0,1,1.19-.64l.6-.37.6-.38a.71.71,0,0,0,.29-.18.71.71,0,0,1,.23-.23,3.59,3.59,0,0,1,.63-.37c.19-.11.41-.19.64-.3a.7.7,0,0,0,.26-.19.87.87,0,0,1,.22-.18.7.7,0,0,1,.26-.19l.26-.11a.66.66,0,0,0,.27-.19.34.34,0,0,1,.22-.18,1.48,1.48,0,0,0,.41-.42,2.4,2.4,0,0,1,.3-.41,4.51,4.51,0,0,1,.9-.78A6.25,6.25,0,0,0,309,199a2.92,2.92,0,0,0,.33-.45,2.85,2.85,0,0,1,.34-.41,5.52,5.52,0,0,1,.56-.53,2.12,2.12,0,0,0,.52-.48,3.82,3.82,0,0,1,.34-.49c.11-.15.18-.3.29-.48a1.22,1.22,0,0,1,.3-.3,1.29,1.29,0,0,0,.27-.3,6.54,6.54,0,0,0,.48-.82,4.18,4.18,0,0,1,.49-.78c.11-.19.29-.42.52-.75s.41-.64.6-1,.37-.67.52-1a2.84,2.84,0,0,0,.19-.82c0-.11,0-.15-.15-.15s-.15,0-.3,0a1.3,1.3,0,0,1-.41,0,1.71,1.71,0,0,0-.45,0,.7.7,0,0,0-.3,0,4,4,0,0,0-.6,0,2.93,2.93,0,0,1-.59,0h-1.13a11.44,11.44,0,0,1-1.15,0c-1,0-2,0-3,0h-3a1.17,1.17,0,0,0-.37,0,1.33,1.33,0,0,1-.38.07,3,3,0,0,1-.63-.07,3.88,3.88,0,0,0-.68,0,1.17,1.17,0,0,0-.37,0,1.17,1.17,0,0,1-.37,0h-.26a.35.35,0,0,1-.3,0c-.34,0-.52-.15-.52-.41a1.31,1.31,0,0,1,0-.34.93.93,0,0,0,0-.33v-.9a.61.61,0,0,1,.3-.56,1.65,1.65,0,0,1,.63-.11h1.72a1.59,1.59,0,0,1,.41.07,1.24,1.24,0,0,0,.41.08,3,3,0,0,0,.6,0,2.64,2.64,0,0,1,.56,0h1.08a9.36,9.36,0,0,0,1.09-.07,4.26,4.26,0,0,1,1-.11,4.65,4.65,0,0,1,.75.07,3.85,3.85,0,0,0,.71.08h1.68A1.61,1.61,0,0,0,311.38,187.52Z" transform="translate(-208.16 -167.98)"/><path class="cls-1" d="M355.11,187.67a.31.31,0,0,0,.23.08,4.05,4.05,0,0,0,.71,0,3.94,3.94,0,0,1,.71,0,8.16,8.16,0,0,1,.93.08c.3,0,.6.07.89.07h.75l.75.11c.19,0,.48.12.82.23a8.78,8.78,0,0,1,1,.37,5,5,0,0,1,.86.52.86.86,0,0,1,.34.64,1.1,1.1,0,0,1-.12.41,2.81,2.81,0,0,1-.26.52,2.22,2.22,0,0,1-.37.45.72.72,0,0,1-.37.19.24.24,0,0,1-.23-.11.29.29,0,0,0-.26-.12h-.07s0,0-.08,0a2.19,2.19,0,0,0-.22.34,6.14,6.14,0,0,0-.34.63,5.24,5.24,0,0,1-.33.67,1.12,1.12,0,0,0-.15.38v.11a.21.21,0,0,0,0,.15s0,.11,0,.22a2,2,0,0,1-.19.67,5.43,5.43,0,0,1-.33.68,1.4,1.4,0,0,0-.19.33l-.22.34a1,1,0,0,1-.3.26.44.44,0,0,0-.26.26c-.15.34-.26.67-.38,1a3.38,3.38,0,0,1-.48,1c-.34.49-.71,1-1.08,1.46s-.83.93-1.24,1.34a7.67,7.67,0,0,0-.56.71,3.77,3.77,0,0,1-.59.71,7.62,7.62,0,0,1-.79.67c-.26.23-.56.45-.82.67a5.82,5.82,0,0,0-.86.86,5,5,0,0,1-.93.79,2,2,0,0,1-.49.29,2.59,2.59,0,0,0-.48.3,2,2,0,0,0-.53.45,2.51,2.51,0,0,1-.56.45,1.69,1.69,0,0,1-.48.26,2.27,2.27,0,0,0-.49.26,5.55,5.55,0,0,0-.67.45,2.66,2.66,0,0,1-.71.45.38.38,0,0,0-.22.19.81.81,0,0,1-.26.18,1.78,1.78,0,0,1-.82.34,1.8,1.8,0,0,0-.86.33,1.56,1.56,0,0,0-.3.23,2.56,2.56,0,0,1-.34.26,9.09,9.09,0,0,1-1.87.82,1.23,1.23,0,0,0-.48.22,2.68,2.68,0,0,1-.45.27,2.64,2.64,0,0,1-.45.15,1.79,1.79,0,0,0-.48.14,12.43,12.43,0,0,1-1.2.57,3.62,3.62,0,0,1-1.3.26,1.11,1.11,0,0,1-.64-.15,1.15,1.15,0,0,1-.41-.41,6.19,6.19,0,0,1-.3-.56,3.89,3.89,0,0,0-.26-.6,1.69,1.69,0,0,0-.11-.26.53.53,0,0,1,0-.26c0-.27.15-.41.49-.53a5.48,5.48,0,0,0,.71-.26,3.26,3.26,0,0,0,1.68-.48,17.45,17.45,0,0,1,1.56-.83c.34-.14.75-.29,1.24-.44a6.53,6.53,0,0,0,1.08-.45c.41-.23.82-.45,1.23-.64s.86-.33,1.27-.52a1.57,1.57,0,0,0,.49-.3,3,3,0,0,1,.44-.3l.79-.44a5,5,0,0,0,.75-.49c.22-.19.44-.37.63-.56a2.26,2.26,0,0,1,.71-.45c.11,0,.3-.15.52-.41a1.13,1.13,0,0,1,.53-.45.71.71,0,0,1,.29-.18,1.37,1.37,0,0,0,.3-.19,2.84,2.84,0,0,0,.49-.49,2.67,2.67,0,0,1,.41-.48c.19-.19.45-.41.78-.75s.67-.67,1-1,.64-.71.93-1.05a4,4,0,0,0,.53-.78,2,2,0,0,1,.48-.67,2.77,2.77,0,0,0,.56-.64,4.87,4.87,0,0,0,.53-1.19,7.91,7.91,0,0,1,.48-1.24,6,6,0,0,1,.45-.82c.11-.18.22-.41.33-.59a3.17,3.17,0,0,0,.19-.71,6.12,6.12,0,0,0,.08-1q0-.27-.12-.33a.93.93,0,0,0-.33,0,4,4,0,0,0-.71,0,4.76,4.76,0,0,1-.75.07c-.56,0-1.12,0-1.68-.07s-1.08-.08-1.64-.08h-.93a2.55,2.55,0,0,1-.53,0,2,2,0,0,0-.33.08.36.36,0,0,0-.23.18l-.22.23a1.44,1.44,0,0,0-.37.56c-.12.18-.23.33-.34.48a2,2,0,0,1-.41.41,2.8,2.8,0,0,0-.49.41c-.3.34-.59.64-.86.94s-.59.63-.89.93a2.08,2.08,0,0,1-.67.45,2,2,0,0,0-.68.45c-.26.26-.59.59-1,.93a6.77,6.77,0,0,1-1.2.82,1.5,1.5,0,0,0-.26.15,1.25,1.25,0,0,0-.3.19,1.41,1.41,0,0,1-.33.18,7.88,7.88,0,0,0-1.13.49c-.41.22-.78.45-1.12.67a1.44,1.44,0,0,1-.37.15,1.63,1.63,0,0,0-.37.19,5.33,5.33,0,0,0-.6.41,1,1,0,0,1-.63.26.74.74,0,0,1-.53-.22,1.48,1.48,0,0,1-.44-.49,2.81,2.81,0,0,1-.3-.63,1.76,1.76,0,0,1-.12-.56.62.62,0,0,1,.19-.45,2.07,2.07,0,0,1,.41-.3,2.6,2.6,0,0,1,.41-.22c.11,0,.26-.12.38-.15a1,1,0,0,0,.41-.27.78.78,0,0,1,.37-.22,5.47,5.47,0,0,0,.67-.3c.19-.07.41-.19.64-.3a2.93,2.93,0,0,0,.52-.41c.15-.11.34-.26.52-.37.34-.23.79-.49,1.27-.75a4.71,4.71,0,0,0,1.12-.82c.45-.45.94-.9,1.42-1.31.26-.26.52-.52.75-.78a6,6,0,0,1,.67-.82,16.21,16.21,0,0,0,1.08-1.35,10.36,10.36,0,0,0,.75-1.08,12.28,12.28,0,0,0,.56-1.19c.15-.41.34-1,.56-1.61a3.47,3.47,0,0,1,.19-.6,1.55,1.55,0,0,0,.11-.56v-.37a1.17,1.17,0,0,1,0-.37,3.09,3.09,0,0,1,.08-.6c0-.19.18-.26.44-.26a.74.74,0,0,1,.34-.08.86.86,0,0,0,.3,0c.19,0,.45,0,.86.08a1.18,1.18,0,0,1,.74.26.57.57,0,0,1,.15.3v.37a9.13,9.13,0,0,1-.18,1.72,6.7,6.7,0,0,0-.23,1.71c0,.34.08.56.26.64a1.36,1.36,0,0,0,.71.15h1.53c.12,0,.15,0,.19,0Zm6.5-1.79a.32.32,0,0,1-.22.22.6.6,0,0,1-.38,0,2.29,2.29,0,0,0-.56,0H360c-.07,0-.11,0-.15,0a.21.21,0,0,0-.15,0s-.11,0-.15,0-.15,0-.15-.12a7.49,7.49,0,0,0,0-.82,5.16,5.16,0,0,1-.08-.78v-.6a1.52,1.52,0,0,1,0-.6,1.48,1.48,0,0,0,.07-.37s0-.15,0-.26v-1.2a2.16,2.16,0,0,0,0-.48,2.48,2.48,0,0,1,0-.49,1.57,1.57,0,0,1,0-.33c0-.11.08-.19.19-.19a.78.78,0,0,1,.41.11h.52a1.27,1.27,0,0,0,.34,0,1,1,0,0,1,.34,0c.18,0,.3.07.3.26v.11a.68.68,0,0,0-.12.38v.41a2.75,2.75,0,0,0,.08.52,3.81,3.81,0,0,1,.07.67,9.13,9.13,0,0,1,0,.93,7.08,7.08,0,0,0,0,.94,2.72,2.72,0,0,0,.07.52,2.1,2.1,0,0,1,.08.52A2.34,2.34,0,0,1,361.61,185.88Zm4.22.15a3.22,3.22,0,0,1-1.12.19.91.91,0,0,1-.52-.12c-.12,0-.19-.22-.19-.48a2.2,2.2,0,0,1,0-.49v-.44a2.61,2.61,0,0,0-.08-.56,2.77,2.77,0,0,1-.07-.56,6.74,6.74,0,0,1,.11-1.27c0-.3.07-.6.11-.9v-.9a.89.89,0,0,1,0-.37.48.48,0,0,1,.15-.11s.11,0,.15,0h1.08a3,3,0,0,0,.6,0,.51.51,0,0,1,0,.26.66.66,0,0,0-.07.3,2.68,2.68,0,0,0,.07.56,2.7,2.7,0,0,1,.08.56v.45a1.68,1.68,0,0,0,0,.44,3.6,3.6,0,0,0,0,.64,4.72,4.72,0,0,1,0,.63,1.58,1.58,0,0,1,0,.38,1.17,1.17,0,0,0,0,.37.62.62,0,0,0,.07.26.53.53,0,0,1,0,.26C366.24,185.62,366.09,185.92,365.83,186Z" transform="translate(-208.16 -167.98)"/><path class="cls-1" d="M379.91,210.19v-.71a1,1,0,0,1,0-.34.86.86,0,0,0,0-.3v-7.32a.58.58,0,0,0,0-.22.43.43,0,0,1,0-.22c0-.6,0-1.2,0-1.83s0-1.2,0-1.79a2.27,2.27,0,0,0,0-.45,1.23,1.23,0,0,1-.08-.38c0-.44,0-.89.08-1.34s0-.9,0-1.34v-.34a2.48,2.48,0,0,1,0-.49c0-.15,0-.29-.08-.41s-.11-.18-.15-.18a.25.25,0,0,0-.18.07c-.26.19-.56.34-.83.52l-.85.56a12,12,0,0,1-1.31.75l-1.34.67a1,1,0,0,0-.23.19.53.53,0,0,1-.3.11c-.11,0-.22-.11-.41-.3a2.62,2.62,0,0,1-.48-.63,3.73,3.73,0,0,1-.45-.75,1.87,1.87,0,0,1-.19-.52.37.37,0,0,1,.23-.34,1.41,1.41,0,0,0,.33-.18c.15-.08.3-.15.49-.27a4.3,4.3,0,0,0,.48-.22,1.56,1.56,0,0,1,.34-.07.94.94,0,0,0,.33-.23,1,1,0,0,1,.45-.22.79.79,0,0,0,.34-.23,1.35,1.35,0,0,1,.33-.18A2.61,2.61,0,0,0,377,191a1.89,1.89,0,0,1,.45-.34,1.19,1.19,0,0,1,.26-.15l.22-.15c.41-.26.86-.52,1.27-.82s.86-.6,1.27-.86a14.21,14.21,0,0,0,1.53-1.23c.49-.49,1-.93,1.38-1.35a2.68,2.68,0,0,1,.45-.44c.22-.19.37-.34.41-.38a1.61,1.61,0,0,0,.41-.37c.11-.15.23-.3.3-.41s0-.08.08-.11.07,0,.11-.08a1.48,1.48,0,0,0,.41-.52,5.85,5.85,0,0,1,.37-.52,1.73,1.73,0,0,1,.45-.49,1.76,1.76,0,0,0,.41-.48,7.94,7.94,0,0,0,.45-.71,7,7,0,0,0,.37-.68,3.32,3.32,0,0,0,.45-.48c0-.11.26-.15.6-.15a.53.53,0,0,0,.26,0,4.65,4.65,0,0,0,.63,0h.68a5.64,5.64,0,0,1,.67,0,1,1,0,0,1,.56.26c.11.12.22.27.33.41a2.62,2.62,0,0,0,.34.45,4.18,4.18,0,0,1,.41.45,4.18,4.18,0,0,0,.41.45c.64.71,1.35,1.45,2.09,2.16a21.34,21.34,0,0,0,2.32,1.91c.11.07.26.19.41.3a.82.82,0,0,0,.33.3.7.7,0,0,0,.3.22,1.18,1.18,0,0,0,.38.22c.41.3.85.6,1.27.94a4.63,4.63,0,0,0,1.34.74,2.61,2.61,0,0,1,.6.34,2,2,0,0,0,.59.41,6.67,6.67,0,0,0,.94.41,3.33,3.33,0,0,1,.89.49,4.52,4.52,0,0,0,1.31.59,5.82,5.82,0,0,1,1.27.64.38.38,0,0,1,.15.22.71.71,0,0,1,0,.26.93.93,0,0,1-.12.42,2.3,2.3,0,0,1-.26.44,2.19,2.19,0,0,1-.33.45,1.59,1.59,0,0,0-.26.37.73.73,0,0,1-.64.34,4.11,4.11,0,0,1-1-.41c-.56-.26-1.16-.6-1.8-.93s-1.23-.68-1.79-1-.93-.52-1.08-.6a1.83,1.83,0,0,0-.08.41,9.28,9.28,0,0,0,.08,1.05,9,9,0,0,1,0,1,.51.51,0,0,1,0,.26,1.11,1.11,0,0,0-.08.34,10.38,10.38,0,0,0,.08,1.08,10.3,10.3,0,0,1,0,1.09v.11s0,.11-.08.15a1.7,1.7,0,0,0,0,.67v.78a4,4,0,0,0,0,.71,4.71,4.71,0,0,1,0,.75,4.53,4.53,0,0,1,0,.75,5.1,5.1,0,0,0,0,.78v.45a.59.59,0,0,0,.12.41.76.76,0,0,0,.26-.19c.11-.11.26-.22.41-.37l.45-.45a2,2,0,0,1,.37-.26,1.58,1.58,0,0,1,.52.19c.23.15.45.33.71.52a5,5,0,0,1,.67.6.67.67,0,0,1,.26.44c0,.12,0,.23-.14.27a3.11,3.11,0,0,1-.27.18c-.33.3-.74.64-1.19,1a6.36,6.36,0,0,1-1.27.93l-.9.56c-.33.23-.59.45-.85.67a2.7,2.7,0,0,1-.86.6,6,6,0,0,0-1,.6s-.11.07-.15.11-.11.07-.11.15.26.37.78.63a14.53,14.53,0,0,0,1.76.75,18,18,0,0,0,1.9.67l1.19.45a1.11,1.11,0,0,0,.71.11,1.51,1.51,0,0,1,.71.15,2.86,2.86,0,0,0,.56.11c.27,0,.49.12.75.15s.49.12.67.15.3.15.3.26a1.42,1.42,0,0,1-.22.6c-.15.26-.3.53-.49.82a7.88,7.88,0,0,1-.6.75c-.22.19-.37.3-.48.3h-.22a.16.16,0,0,0-.19,0c-.26-.12-.56-.23-.86-.34s-.6-.19-.86-.26a.43.43,0,0,0-.22,0,.39.39,0,0,1-.23-.07,1.74,1.74,0,0,1-.67-.15,3.71,3.71,0,0,0-.71-.26c-.41-.12-.82-.26-1.19-.41s-.79-.3-1.2-.49a3.81,3.81,0,0,0-.41-.22,2.68,2.68,0,0,0-.45-.27c-.22-.11-.45-.22-.71-.33a5.92,5.92,0,0,1-.67-.34,8.43,8.43,0,0,1-.93-.63c-.3-.19-.6-.41-.93-.6a7.5,7.5,0,0,1-1.05-.9c-.45-.41-.82-.71-1.08-.93-.56-.52-1.12-1.08-1.65-1.64a3.83,3.83,0,0,1-.48-.71c-.19-.37-.45-.79-.71-1.2s-.56-.74-.82-1.08c0,0,0-.07-.08-.11s-.11,0-.15,0c-.52,0-1,0-1.53,0s-1,0-1.57,0a5.1,5.1,0,0,1-.78,0,5.63,5.63,0,0,0-.82,0c-.19,0-.34,0-.37.11a.59.59,0,0,0-.12.41,1.87,1.87,0,0,0,0,.49,2.32,2.32,0,0,1,0,.52,1,1,0,0,1,0,.34.93.93,0,0,0,0,.33,5.77,5.77,0,0,0,0,.83,5.63,5.63,0,0,1,0,.82.43.43,0,0,1,0,.22.47.47,0,0,0,0,.23.64.64,0,0,0,0,.29.71.71,0,0,1,0,.3.51.51,0,0,1,0,.26.47.47,0,0,0,0,.23,9.1,9.1,0,0,0,.08,1,5,5,0,0,1,0,1.09c.26,0,.52-.12.78-.15s.49-.11.75-.15a4.4,4.4,0,0,0,1-.23,2.63,2.63,0,0,1,.93-.15,2,2,0,0,0,.68-.11,1.81,1.81,0,0,1,.63-.11.94.94,0,0,1,.19-.07s.18,0,.41-.08a1.25,1.25,0,0,0,.45,0,7.66,7.66,0,0,0,1.19-.33,7.43,7.43,0,0,1,1.16-.23,1,1,0,0,0,.33-.07.7.7,0,0,1,.3-.08c.08,0,.15.08.19.19s.11.3.15.49,0,.33.07.52a1.57,1.57,0,0,1,0,.34v.14s0,.12,0,.23a.15.15,0,0,0,0,.11.12.12,0,0,1,0,.11.26.26,0,0,1-.19.19,5.38,5.38,0,0,0-.63.19,4.46,4.46,0,0,1-.67.18c-.23,0-.45.11-.68.15l-.67.15a7,7,0,0,1-.86.3c-.48.11-1,.26-1.64.41s-1.16.26-1.68.37l-1,.23a.93.93,0,0,1-.33,0,1,1,0,0,0-.34.07,9,9,0,0,1-2.05.49,3,3,0,0,0-.86.22,8.49,8.49,0,0,1-.93.19,2.38,2.38,0,0,1-.27.07.56.56,0,0,1-.3-.07l-.74.22a2.65,2.65,0,0,1-.79.11s-.14,0-.26,0a.78.78,0,0,1-.56-.26,2.23,2.23,0,0,1-.44-.67,3.37,3.37,0,0,1-.34-.79,1.69,1.69,0,0,1-.15-.63.47.47,0,0,1,0-.23.26.26,0,0,1,.18-.15,3.34,3.34,0,0,1,.94-.18c.33,0,.67,0,1-.08a2.39,2.39,0,0,0,.6-.11,1,1,0,0,1,.52,0h.11a1.19,1.19,0,0,0,.52-.11,1.1,1.1,0,0,1,.49-.11C379.83,210.64,379.87,210.41,379.91,210.19Zm16.69-17.4c-.26,0-.52-.08-.82-.11a7.63,7.63,0,0,0-.93,0h-.56a5.77,5.77,0,0,0-.83,0,11.22,11.22,0,0,1-1.64,0,5.63,5.63,0,0,0-.82,0,.71.71,0,0,0-.3,0,.89.89,0,0,1-.3,0H387a2.48,2.48,0,0,1-.49,0,1.71,1.71,0,0,0-.45,0,.93.93,0,0,0-.33,0,1.58,1.58,0,0,1-.38,0H383.2c-.12,0-.23,0-.34.08s-.15.07-.15.11,0,0,0,.07a.55.55,0,0,0,0,.27v.26s0,.15,0,.3a.53.53,0,0,1,0,.26.75.75,0,0,0,0,.3c0,.07,0,.15,0,.18v.23a1.7,1.7,0,0,0,0,.52c0,.11.15.15.41.15a5.69,5.69,0,0,0,.82-.08,7.49,7.49,0,0,1,.82,0c.49,0,.93,0,1.42,0s.93.08,1.42.08a.43.43,0,0,0,.22,0,.53.53,0,0,1,.26,0,1,1,0,0,1,.34,0,.71.71,0,0,0,.3,0,5.69,5.69,0,0,0,.82-.08,7.49,7.49,0,0,1,.82,0c.64,0,1.31,0,1.94,0s1.31,0,2,0c.41,0,.85,0,1.3,0s.9,0,1.31,0c0,0,0,0,.07,0h0a1.44,1.44,0,0,0,0-.45,2.64,2.64,0,0,0,0-.56,2.68,2.68,0,0,1-.07-.56,1.23,1.23,0,0,1,0-.33v-.27C397,193,396.86,192.86,396.6,192.79Zm-1,4.85h-.08a.12.12,0,0,1-.11,0,3,3,0,0,1-.59-.08,4.09,4.09,0,0,0-.6,0,2.8,2.8,0,0,0-.52,0,2.8,2.8,0,0,1-.56.08c-.56,0-1.16,0-1.72,0s-1.16,0-1.72,0h-.22a.73.73,0,0,1-.27,0H389a2.38,2.38,0,0,0-.63-.07c-.41,0-.82,0-1.31,0h-2.2a.51.51,0,0,0-.26,0,.66.66,0,0,1-.26.07,3.5,3.5,0,0,0-1.24.15c-.26.11-.41.49-.41,1.16a3,3,0,0,0,0,.6v.59s0,.08.08.19.07.19.11.15H383a1.17,1.17,0,0,1,.37,0,1.58,1.58,0,0,0,.38,0h1.71a.47.47,0,0,0,.26-.07.47.47,0,0,1,.23,0h2.2a.78.78,0,0,1,.3,0,.7.7,0,0,0,.3.07,2.68,2.68,0,0,0,.56-.07,2.15,2.15,0,0,1,.52,0,2.59,2.59,0,0,1,.56,0,2.77,2.77,0,0,0,.56.07,4.93,4.93,0,0,0,.67,0,3.23,3.23,0,0,1,.64,0,1.71,1.71,0,0,1,.45,0,2.12,2.12,0,0,0,1,0h.48c.3,0,.64,0,1,0a2.65,2.65,0,0,0,.94-.15,1.43,1.43,0,0,0,.67-.45A1.31,1.31,0,0,0,397,199a2.75,2.75,0,0,0-.15-1.09c-.11-.18-.45-.3-1-.3C395.74,197.6,395.67,197.6,395.63,197.64Zm-7.13-7.5a.23.23,0,0,1,0-.15,2.61,2.61,0,0,1,.08-.56,2.91,2.91,0,0,0,0-.53V188c0-.3,0-.6,0-.89s.14-.27.48-.3a4.17,4.17,0,0,1,.6,0c.78,0,1.27.19,1.42.6a5,5,0,0,1,.22,1.64v1a.34.34,0,0,0,.08.26.29.29,0,0,0,.22.07.34.34,0,0,1,.19,0,7.49,7.49,0,0,1,.82,0,5.69,5.69,0,0,0,.82.08.51.51,0,0,0,.26,0,.53.53,0,0,1,.26,0,1.71,1.71,0,0,1,.45,0,1.71,1.71,0,0,0,.45,0,1.23,1.23,0,0,0,.37-.08,1.54,1.54,0,0,1,.37,0c.38,0,.75,0,1.12,0a10.57,10.57,0,0,0,1.12,0H398a.11.11,0,0,0,.15,0c0-.11-.19-.19-.37-.3a4.1,4.1,0,0,1-.52-.26c-.12-.11-.27-.22-.38-.34s-.26-.18-.37-.29l-.45-.34-.45-.3A17.41,17.41,0,0,1,393.8,187c-.56-.56-1.16-1.08-1.72-1.64a3.15,3.15,0,0,1-.48-.49l-.68-.78c-.26-.26-.48-.49-.67-.71s-.37-.3-.45-.3-.14.07-.26.19-.26.3-.37.48a5.21,5.21,0,0,1-.37.49,2.41,2.41,0,0,1-.3.37,4.35,4.35,0,0,0-.75.82c-.26.38-.52.71-.71,1-.41.45-.82.86-1.23,1.24s-.86.82-1.27,1.23a.71.71,0,0,0-.15.18l-.19.19a2.22,2.22,0,0,1-.26.19l-.37.22c-.11.11-.23.19-.34.3a.45.45,0,0,0-.15.3,1.12,1.12,0,0,0,.56.11,3.69,3.69,0,0,0,.6,0,.78.78,0,0,0,.3,0,.51.51,0,0,1,.26,0h3.74A.37.37,0,0,0,388.5,190.14Zm10.6,12.77a1.17,1.17,0,0,1-.37,0,1.57,1.57,0,0,0-.41,0c-.53,0-1.05,0-1.53,0s-1.05,0-1.57,0H391.9c-.12,0-.19,0-.23,0a.51.51,0,0,0-.26,0,1.44,1.44,0,0,0-.45,0,1.5,1.5,0,0,0,.26.34,2.17,2.17,0,0,1,.27.37,2.34,2.34,0,0,0,.29.37c.12.11.26.3.53.56a7.37,7.37,0,0,0,.78.82,8.57,8.57,0,0,0,.82.79,2.68,2.68,0,0,0,.56.41,7.85,7.85,0,0,0,.79-.45l.86-.63.89-.68a5.41,5.41,0,0,1,.78-.56,1.27,1.27,0,0,0,.38-.33,3.79,3.79,0,0,1,.37-.41,1,1,0,0,0,.38-.26l.37-.3Z" transform="translate(-208.16 -167.98)"/><path class="cls-1" d="M425.39,191.52a1.71,1.71,0,0,0-.63.19c-.26.14-.56.29-.86.48s-.56.41-.82.6a1.85,1.85,0,0,0-.49.45,3.25,3.25,0,0,0-.3.37,2.34,2.34,0,0,1-.29.37,2.66,2.66,0,0,1-.64.49,2.3,2.3,0,0,0-.6.45l-.33.33-.38.34-1.15.74a8.39,8.39,0,0,1-1.24.6l-.56.23a1.54,1.54,0,0,1-.56.15,8.9,8.9,0,0,1-1,0,3.53,3.53,0,0,1-1.08-.15,2.55,2.55,0,0,1-.9-.41,1,1,0,0,1-.37-.82,2.09,2.09,0,0,1,.34-1.12,1.07,1.07,0,0,1,1-.56,2.63,2.63,0,0,1,.78.11,2.61,2.61,0,0,0,.75.11,3.23,3.23,0,0,0,.93-.15,4.08,4.08,0,0,0,.86-.33,2.18,2.18,0,0,0,.52-.49,1.89,1.89,0,0,1,.45-.49c.34-.29.71-.59,1.05-.93s.63-.6,1-.93a1,1,0,0,1,.37-.26.54.54,0,0,0,.26-.19l.34-.34a2.24,2.24,0,0,1,.3-.33,2.27,2.27,0,0,1,.74-.49l1-.33a4.73,4.73,0,0,1,1-.23,7.52,7.52,0,0,1,.82-.07,6.69,6.69,0,0,1,3.14.67,8.7,8.7,0,0,1,2.39,2.09,8.45,8.45,0,0,1,.52.75,4.5,4.5,0,0,0,.49.74,7.69,7.69,0,0,0,.52.68,8,8,0,0,0,.56.59,3.26,3.26,0,0,1,.52.53c.19.26.42.56.6.82a6.17,6.17,0,0,0,.6.82,8.16,8.16,0,0,0,1,.93c.38.3.75.6,1.09.9s.86.71,1.27,1a12.25,12.25,0,0,0,1.34.94,1.12,1.12,0,0,0,.56.18,2,2,0,0,1,.6.19,6,6,0,0,0,1.57.52,11.52,11.52,0,0,0,1.6.26l.82.12a7.53,7.53,0,0,0,.83.07.93.93,0,0,0,.33,0h.56a.21.21,0,0,1,.19.12c.11.07.18.26.18.56a2.1,2.1,0,0,0,0,.63s0,.11.08.15a.4.4,0,0,1,0,.19,1,1,0,0,1-.08.33c0,.12-.11.26-.15.38a1,1,0,0,1-.74.71,10.7,10.7,0,0,1-1.09.07,2.49,2.49,0,0,1-1-.22,2.7,2.7,0,0,0-.85-.19.23.23,0,0,1-.23,0h-.22a2.68,2.68,0,0,1-.49-.11c-.26,0-.56-.12-.86-.19l-.82-.23c-.26-.07-.45-.11-.52-.14a1.07,1.07,0,0,1-.37-.23.92.92,0,0,0-.41-.22,4,4,0,0,1-.71-.23,1,1,0,0,1-.64-.33,6.11,6.11,0,0,0-.75-.41,3.22,3.22,0,0,1-.7-.45,13.58,13.58,0,0,1-1.35-1.08c-.45-.38-.89-.79-1.31-1.2a2,2,0,0,1-.26-.34,1.7,1.7,0,0,0-.26-.29,17.87,17.87,0,0,1-1.83-2.24,2,2,0,0,1-.15-.34.87.87,0,0,0-.18-.34c-.19-.26-.49-.63-.83-1.12s-.71-.89-1.08-1.38-.78-.86-1.19-1.23a3.8,3.8,0,0,0-1.05-.67,3.92,3.92,0,0,0-1.12-.15Zm14.42-.11a.68.68,0,0,1-.34.11.71.71,0,0,1-.41,0h-.37a1,1,0,0,0-.34,0,1.31,1.31,0,0,1-.34,0c-.07,0-.11-.07-.15-.22a1.63,1.63,0,0,1-.07-.45,1.71,1.71,0,0,1,0-.45,1.12,1.12,0,0,1,0-.3.57.57,0,0,1,0-.26,10.46,10.46,0,0,1,.07-1.08,9.28,9.28,0,0,0,.08-1.05v-1.12a.26.26,0,0,0,0-.18v-.23s0-.11,0-.18a2.48,2.48,0,0,1,.08-.49.3.3,0,0,1,.33-.26h.34c.15,0,.26,0,.3.08h.37a.55.55,0,0,0,.37,0h.23a.17.17,0,0,1,.11.18.38.38,0,0,1,0,.19.52.52,0,0,0,0,.19s0,.07,0,.18a3,3,0,0,0,.11.79,5.16,5.16,0,0,1,.08.78,7.32,7.32,0,0,1-.08,1,8.72,8.72,0,0,0-.07,1,3.14,3.14,0,0,0,.07.64,3.58,3.58,0,0,1,.08.78A.38.38,0,0,1,439.81,191.41Zm2.65.18a.18.18,0,0,1-.12,0s-.07,0-.07-.12v-.22a1.57,1.57,0,0,1,0-.41,2.08,2.08,0,0,0,0-.41,6.82,6.82,0,0,0-.07-.9,6.8,6.8,0,0,1-.07-.89,3.07,3.07,0,0,1,.07-.6,2.68,2.68,0,0,0,.07-.56V186c0-.27.08-.42.23-.49a2,2,0,0,1,.52-.07h1.05c.18,0,.3,0,.26.11a.93.93,0,0,0,0,.33,3.85,3.85,0,0,0,.08.71,5.39,5.39,0,0,1,0,.71v.38a2,2,0,0,0,0,.41.62.62,0,0,0,.07.29,1,1,0,0,1,0,.34,1.3,1.3,0,0,1,0,.41,1.71,1.71,0,0,0,0,.45,3.5,3.5,0,0,0,0,.63v1a.19.19,0,0,1-.15.18l-.37.11-.41.12a1.48,1.48,0,0,1-.3,0h-.82Z" transform="translate(-208.16 -167.98)"/><path class="cls-2" d="M249.37,223.11c-.26-.36-.77-1.54-1.24-1.58-1.11-.09-1.21-1.66-.3-1.87,0,0,0,0,0-.08s0-.11.11-.15a1.53,1.53,0,0,1,.16-.11,6,6,0,0,1,1-.61,2.65,2.65,0,0,0,.87-.6,9.42,9.42,0,0,1,.87-.68l.9-.57a6.15,6.15,0,0,0,1.29-.94c.45-.41.86-.75,1.2-1,.08,0,.15-.12.27-.19a.26.26,0,0,0,.15-.27.74.74,0,0,0-.27-.45,4.6,4.6,0,0,0-.68-.6c-.26-.19-.49-.38-.71-.53a2,2,0,0,0-.53-.19,2,2,0,0,0-.38.26l-.45.46c-.15.15-.3.26-.41.37a.64.64,0,0,1-.27.19.61.61,0,0,1-.11-.41v-.45a5.36,5.36,0,0,1,0-.8,5.94,5.94,0,0,0,0-.75,6.27,6.27,0,0,0,0-.75,4.17,4.17,0,0,1,0-.72v-.79a1.57,1.57,0,0,1,0-.68s0-.12.07-.15v-.12a10.3,10.3,0,0,0,0-1.09c0-.38-.07-.75-.07-1.09a1.28,1.28,0,0,1,.07-.34.55.55,0,0,0,0-.27,9.21,9.21,0,0,0,0-1c0-.34-.07-.72-.07-1.06a2.51,2.51,0,0,1,.07-.41l.17.08c-.58-.92-.4-2-.24-3.36h0s0-.08,0-.12l-1-.76a1.66,1.66,0,0,1-.38-.23.7.7,0,0,1-.3-.22.94.94,0,0,1-.34-.31l-.41-.3a20.51,20.51,0,0,1-2.34-1.92c-.75-.72-1.47-1.47-2.11-2.19a5.76,5.76,0,0,1-.42-.45,4.18,4.18,0,0,0-.41-.45,2.2,2.2,0,0,1-.34-.46,3.7,3.7,0,0,0-.34-.41,1,1,0,0,0-.57-.26,4.3,4.3,0,0,0-.68,0h-.82a5.1,5.1,0,0,0-.68-.13c0-.09,0-.19,0-.32-.07-.34-.15-.67-.22-1.09s-.19-.79-.3-1.17-.23-.6-.27-.72l-.22-.34a.42.42,0,0,1-.16-.3,9.21,9.21,0,0,1,0-1,9.39,9.39,0,0,0,0-1.06,4.07,4.07,0,0,1,.08-.72,5,5,0,0,0,.07-.71,1.68,1.68,0,0,0-.15-.57,5.2,5.2,0,0,0,.08-.53c0-.22.11-.37.22-.41a5.57,5.57,0,0,0,.6,0c.34,0,.76,0,1.21,0h2a2.73,2.73,0,0,1,.57,0,2.11,2.11,0,0,0,.53.08,9.66,9.66,0,0,0,1.09,0,9.66,9.66,0,0,1,1.09,0h1a7.31,7.31,0,0,0,.95,0,2.64,2.64,0,0,0,.56,0,2.73,2.73,0,0,1,.57,0,3,3,0,0,1,.6,0,2.73,2.73,0,0,0,.57,0,6.48,6.48,0,0,0,.86,0c.27,0,.42-.22.42-.6v-.34a1,1,0,0,1,0-.34,1.57,1.57,0,0,1,0-.41v-.46a3.38,3.38,0,0,1-.11-.34.5.5,0,0,0-.34-.11h-.42a1.71,1.71,0,0,1-.45,0,3.25,3.25,0,0,1-.68-.08,3.88,3.88,0,0,0-.68,0,.59.59,0,0,0-.26,0,1.22,1.22,0,0,0-.38.07,1.23,1.23,0,0,1-.38.08,1,1,0,0,1-.34,0,1,1,0,0,0-.34,0h-1a1.87,1.87,0,0,0-.49,0,1.79,1.79,0,0,1-.46,0,1.69,1.69,0,0,1-.64-.12,4,4,0,0,0-.64-.07,5.42,5.42,0,0,0-.64.07,4,4,0,0,1-.64.08h-2.26a2.54,2.54,0,0,1-1.44-.3c-.26-.19-.37-.64-.37-1.36v-.53a1.4,1.4,0,0,1,.11-.56,2.11,2.11,0,0,0,.08-.53,8.7,8.7,0,0,0,0-1,7.71,7.71,0,0,1,0-1,3,3,0,0,1,0-.6,2.73,2.73,0,0,0,0-.57.56.56,0,0,0-.12-.41.91.91,0,0,0-.41-.08h-.57a2.69,2.69,0,0,1-.56,0,5.13,5.13,0,0,0-1,.07c-.15,0-.22.34-.22.83a2.37,2.37,0,0,0,0,.46v.45a5.54,5.54,0,0,1,0,.72,3.85,3.85,0,0,0-.08.71,4,4,0,0,0,.11.94,3.69,3.69,0,0,1,.12,1,1.11,1.11,0,0,1-.08.34,1.57,1.57,0,0,0-.11.64.78.78,0,0,1-.15.53,1.15,1.15,0,0,1-.61.15,6.27,6.27,0,0,1-.75,0l-.75.12a1.54,1.54,0,0,1-.38.07,2.34,2.34,0,0,1-.83-.11,3.94,3.94,0,0,0-.68-.08h-2a.51.51,0,0,0-.26,0,.8.8,0,0,1-.3,0,1.36,1.36,0,0,1-.42,0h-.45a1.4,1.4,0,0,0-.42,0,1.3,1.3,0,0,1-.41,0,1.78,1.78,0,0,1-.45-.08,1.87,1.87,0,0,0-.49-.07c-.31,0-.61,0-.91,0a6.84,6.84,0,0,1-.9.08h-4.87a1.25,1.25,0,0,1-.34,0h-.45a1.44,1.44,0,0,0-.45,0,.38.38,0,0,0-.23.19.78.78,0,0,0,0,.34,1.61,1.61,0,0,0,.12.6,5.42,5.42,0,0,1,.07.64,17.18,17.18,0,0,0-.07.34.4.4,0,0,0,0,.19c0,.19.15.26.45.3a3.89,3.89,0,0,0,.6,0,3.77,3.77,0,0,0,.65,0h.64a4.71,4.71,0,0,1,.75,0,4.11,4.11,0,0,0,.72,0,.51.51,0,0,0,.26,0s.11,0,.23,0h.3a1.87,1.87,0,0,0,.49,0h.45c.11,0,.23,0,.27,0h.22a2.37,2.37,0,0,1,.53,0,1.87,1.87,0,0,0,.49,0,1.71,1.71,0,0,0,.45,0,1.61,1.61,0,0,0,.42,0,8.26,8.26,0,0,1,1.66-.07c.56,0,1.09,0,1.62,0H232c.79,0,1.62,0,2.45,0a1,1,0,0,0,.34,0,1.27,1.27,0,0,1,.34,0c.3,0,.49,0,.56.11a.8.8,0,0,1,.12.53,8.7,8.7,0,0,1,0,1,9.28,9.28,0,0,0-.08,1.05v.27a.12.12,0,0,1,0,.11.13.13,0,0,0,0,.11v.12a.21.21,0,0,1-.15.22.8.8,0,0,1-.3,0,1.87,1.87,0,0,1-.49,0,1.91,1.91,0,0,0-.49,0h-.46a1.24,1.24,0,0,0-.41.08,4.23,4.23,0,0,1-.57.19,3.56,3.56,0,0,0-.53.3,13.68,13.68,0,0,0-1.47,1.17,5,5,0,0,0-1.09,1.51,5.78,5.78,0,0,0-.3,1.05,5.68,5.68,0,0,0-.11,1.1V192a3.23,3.23,0,0,0,.07.68,5.31,5.31,0,0,0,.83,2,3.4,3.4,0,0,0,1.62,1.39,2.88,2.88,0,0,1,.45.19.76.76,0,0,0,.5.15,1,1,0,0,0,.52-.19,1.6,1.6,0,0,0,.38-.49,2.53,2.53,0,0,0,.26-.6,2.85,2.85,0,0,0,.08-.53.72.72,0,0,0-.26-.6,4.83,4.83,0,0,1-.65-.45,3.69,3.69,0,0,1-.6-.64,1.53,1.53,0,0,1-.3-1,6.59,6.59,0,0,1,.11-1.1,3.77,3.77,0,0,1,.38-1.13,3.85,3.85,0,0,1,.68-.87,1.63,1.63,0,0,1,1.05-.34,2.08,2.08,0,0,1,.95.23,4.47,4.47,0,0,1,.75.64,3.7,3.7,0,0,1,.49.83,3.08,3.08,0,0,1,.19.94,1,1,0,0,1,0,.34,1,1,0,0,0,0,.34.62.62,0,0,0,0,.27,1.09,1.09,0,0,0,.07.34,1.3,1.3,0,0,1,0,.41,6.44,6.44,0,0,1-.08.83,5,5,0,0,1-.26.83,8.35,8.35,0,0,1-.34.87c-.19.37-.34.75-.53,1.13s-.34.72-.52,1a3.71,3.71,0,0,1-.53.76L233,199.91a.86.86,0,0,1-.45.27,2,2,0,0,0-.49.3,9,9,0,0,1-1.06.68c-.33.19-.71.37-1.13.56-.11,0-.22.12-.3.15a3.49,3.49,0,0,1-.34.15,1.41,1.41,0,0,1-.56.12,1,1,0,0,0-.53.15,2.84,2.84,0,0,1-.68.3,2.69,2.69,0,0,1-.79.11,3.14,3.14,0,0,0-.95.19.94.94,0,0,1-.37.12c-.19.07-.3.15-.3.22s0,.11.15.23a.76.76,0,0,1,.22.34,8.74,8.74,0,0,1,.3.86,2.84,2.84,0,0,0,.38.8c0,.07.19.11.38.11a2.22,2.22,0,0,0,.72-.11,2.24,2.24,0,0,1,.64-.27l.6-.11.6-.11a1.63,1.63,0,0,0,.34-.19,1.68,1.68,0,0,1,.34-.19,1.77,1.77,0,0,1,.46-.08l.45-.11.09,0c0,.08,0,.17,0,.27a1.91,1.91,0,0,0,0,.49v.34c0,.45,0,.9,0,1.35s-.07.91-.07,1.36a1.8,1.8,0,0,0,.07.38,1.71,1.71,0,0,1,0,.45c0,.6,0,1.21,0,1.81s0,1.25,0,1.85a.56.56,0,0,0,0,.22.49.49,0,0,1,0,.23v7.39a.66.66,0,0,1,0,.3,1.34,1.34,0,0,0,0,.34v.72l-.12.68a1.1,1.1,0,0,0-.49.11,1.28,1.28,0,0,1-.53.12h-.11a.9.9,0,0,0-.53,0l-.07,0a1.08,1.08,0,0,1,.1.35,1,1,0,0,1,.33.31,2.46,2.46,0,0,0,1.4,1c.74,0,1.47,0,2.21-.09l.29-.21a.62.62,0,0,1,0-.19c.13-.63.25-1.26.37-1.89a.52.52,0,0,1,.06-.13h-.07a5,5,0,0,0,0-1.09,9.43,9.43,0,0,1-.07-1.06.56.56,0,0,1,0-.22.57.57,0,0,0,0-.27.71.71,0,0,0,0-.3.92.92,0,0,1,0-.3.61.61,0,0,1,0-.23.43.43,0,0,0,0-.22,5.7,5.7,0,0,0,0-.83,7.77,7.77,0,0,1,0-.83,1.27,1.27,0,0,1,0-.34,1,1,0,0,0,0-.34,2.37,2.37,0,0,0,0-.53,2.48,2.48,0,0,1,0-.49.6.6,0,0,1,.11-.42c0-.07.19-.11.38-.11a5.84,5.84,0,0,1,.83,0,5.16,5.16,0,0,0,.79,0c.53,0,1.05,0,1.58,0s1,0,1.55,0a.21.21,0,0,1,.15,0s0,.07.07.11a11.27,11.27,0,0,1,.83,1.1,13.58,13.58,0,0,1,.72,1.2,3.25,3.25,0,0,0,.49.72c.53.56,1.09,1.13,1.66,1.66.26.22.64.53,1.09.94a9.07,9.07,0,0,0,1.06.91c.34.18.64.41.94.6a7.89,7.89,0,0,0,.95.64,5.18,5.18,0,0,0,.67.34c.27.11.49.23.72.34a2.6,2.6,0,0,1,.45.26,4,4,0,0,1,.42.23c.41.19.82.34,1.2.49A6.7,6.7,0,0,1,249.37,223.11Zm-13.55-21.73a5.84,5.84,0,0,0,.53-.6c.15-.19.3-.38.49-.6s.38-.53.64-.87c.12-.11.23-.26.34-.38a1.68,1.68,0,0,0,.27-.34,10.26,10.26,0,0,0,.53-1.09c.18-.45.33-.94.49-1.47s.3-1,.41-1.47l0-.14a3.64,3.64,0,0,1,1.46.23l.19.15c.19.23.42.46.68.72l.68.79a2.67,2.67,0,0,0,.49.49c.57.57,1.17,1.1,1.74,1.66A15.89,15.89,0,0,0,246.6,200c.15.11.3.19.45.3l.45.34c.11.11.26.19.38.3l.37.34c.12.07.31.15.53.26s.34.19.38.31a.14.14,0,0,1-.15,0h-.19a10.67,10.67,0,0,1-1.13,0,10.76,10.76,0,0,0-1.13,0,1.2,1.2,0,0,0-.38,0,1.22,1.22,0,0,1-.38.07,2.27,2.27,0,0,1-.45,0,1.71,1.71,0,0,0-.45,0,.57.57,0,0,0-.27,0,.66.66,0,0,1-.26,0,5.81,5.81,0,0,1-.83-.07,5.77,5.77,0,0,0-.83,0,.28.28,0,0,0-.19,0,.28.28,0,0,1-.22-.08.34.34,0,0,1-.08-.26v-1a5.06,5.06,0,0,0-.23-1.66c-.15-.41-.64-.6-1.43-.6a5.54,5.54,0,0,0-.6,0c-.34,0-.49.12-.49.31a6.78,6.78,0,0,0,0,.9v.94a2.2,2.2,0,0,1,0,.53,2.8,2.8,0,0,0-.08.57.21.21,0,0,0,0,.15.38.38,0,0,1,0,.19H235.7a.55.55,0,0,0-.27,0,.77.77,0,0,1-.26,0C235.43,201.7,235.66,201.52,235.82,201.38ZM233.58,205v-.26a.69.69,0,0,1,0-.26s0,0,0-.08,0-.08.16-.11.22,0,.33-.08h2.15a1.2,1.2,0,0,0,.38,0,1.31,1.31,0,0,1,.34,0,2.27,2.27,0,0,1,.45,0,1.87,1.87,0,0,0,.49,0h3.47a.66.66,0,0,0,.3,0,1,1,0,0,1,.31,0,7.77,7.77,0,0,1,.83,0,5.7,5.7,0,0,0,.83,0,5.84,5.84,0,0,0,.83,0,7.58,7.58,0,0,1,.83,0h.56c.3,0,.6,0,.94,0l.83.12c.27.07.38.19.38.34v.26a1,1,0,0,0,0,.34,2.8,2.8,0,0,0,.08.57,2.59,2.59,0,0,1,0,.56,1.44,1.44,0,0,1,0,.45h0s0,0-.08,0c-.41,0-.86,0-1.31,0s-.91,0-1.32,0c-.65,0-1.32,0-2,0s-1.32,0-2,0a5.84,5.84,0,0,0-.83,0,5.69,5.69,0,0,1-.83.07.92.92,0,0,1-.3,0,1,1,0,0,0-.34,0,.51.51,0,0,0-.26,0,.61.61,0,0,1-.23,0c-.49,0-.94,0-1.43-.07s-.94,0-1.43,0a5.7,5.7,0,0,0-.83,0,5.93,5.93,0,0,1-.83.07c-.27,0-.42,0-.42-.15a1.7,1.7,0,0,1,0-.52v-.23a.34.34,0,0,1,0-.19,1,1,0,0,1,0-.3.55.55,0,0,0,0-.27C233.62,205.17,233.62,205.06,233.58,205Zm7.77,7.06a2.64,2.64,0,0,0-.56,0,2.2,2.2,0,0,0-.53,0,3.7,3.7,0,0,1-.57.07.88.88,0,0,1-.3-.07.78.78,0,0,0-.3,0h-2.22a.45.45,0,0,0-.23,0,.66.66,0,0,1-.26.07h-1.74a1.26,1.26,0,0,1-.38,0,1.54,1.54,0,0,0-.37,0h-.12s-.07,0-.11-.16-.08-.15-.08-.18v-.61a4,4,0,0,1,0-.6c0-.68.15-1.06.41-1.17a3.57,3.57,0,0,1,1.25-.15.53.53,0,0,0,.26-.08.69.69,0,0,1,.26,0H238c.49,0,.9,0,1.32,0a2.79,2.79,0,0,1,.64.08h.26a.73.73,0,0,0,.27,0h.22c.57,0,1.17,0,1.74,0s1.17,0,1.73,0a2.8,2.8,0,0,0,.57-.08,2.2,2.2,0,0,1,.53,0,3,3,0,0,1,.6,0,3.19,3.19,0,0,0,.6.08.15.15,0,0,0,.12,0h.07s.12,0,.23,0c.56,0,.9.11,1,.3a2.8,2.8,0,0,1,.15,1.1,1.34,1.34,0,0,1-.27.94,1.26,1.26,0,0,1-.67.45,2.53,2.53,0,0,1-1,.15,8.36,8.36,0,0,1-1,0h-.49a2.37,2.37,0,0,1-.53,0,1.78,1.78,0,0,1-.45-.08,2.27,2.27,0,0,0-.45,0,4.29,4.29,0,0,0-.64,0,3.94,3.94,0,0,1-.68,0A3.7,3.7,0,0,1,241.35,212.08Zm4.91,5.65a9.14,9.14,0,0,1-.8.45,2.07,2.07,0,0,1-.56-.41,7.6,7.6,0,0,1-.83-.79,8.57,8.57,0,0,1-.79-.83c-.27-.27-.42-.45-.53-.57a2.44,2.44,0,0,1-.3-.37,1.89,1.89,0,0,0-.27-.38,1.5,1.5,0,0,1-.26-.34,1.44,1.44,0,0,1,.45,0,.57.57,0,0,1,.27,0s.11,0,.22,0h3.36c.53,0,1.05,0,1.58,0s1,0,1.55,0a1.57,1.57,0,0,1,.41,0,1.26,1.26,0,0,0,.38,0h.19l-.38.3a.86.86,0,0,1-.38.26,5.27,5.27,0,0,0-.37.42,1.9,1.9,0,0,1-.38.34,5.48,5.48,0,0,0-.79.56l-.91.68Z" transform="translate(-208.16 -167.98)"/><path class="cls-2" d="M240.76,218.9a1.75,1.75,0,0,0-.64.19c-.27.15-.57.3-.87.49s-.57.41-.83.6a1.85,1.85,0,0,0-.49.45,3.1,3.1,0,0,0-.3.38,4.5,4.5,0,0,1-.3.38,2.53,2.53,0,0,1-.65.49,2.3,2.3,0,0,0-.6.45l-.34.34c-.11.11-.26.23-.38.34l-1.17.75a9,9,0,0,1-1.24.61l-.57.22a1.39,1.39,0,0,1-.56.15c-.27,0-.6,0-1,0a3.61,3.61,0,0,1-1.1-.15,2.57,2.57,0,0,1-.9-.42,1,1,0,0,1-.38-.83,2.24,2.24,0,0,1,.34-1.13,1.1,1.1,0,0,1,1-.57,2.66,2.66,0,0,1,.79.12,2.63,2.63,0,0,0,.76.11,3.35,3.35,0,0,0,.94-.15,4.13,4.13,0,0,0,.87-.34,2,2,0,0,0,.53-.49,1.73,1.73,0,0,1,.45-.49c.34-.3.72-.6,1.06-.94s.64-.61,1-1a1.2,1.2,0,0,1,.37-.26.47.47,0,0,0,.27-.19l.34-.34a2.93,2.93,0,0,1,.3-.34,2.32,2.32,0,0,1,.75-.49l1-.34a4.65,4.65,0,0,1,1-.22,7.84,7.84,0,0,1,.83-.08,6.81,6.81,0,0,1,3.17.68,8.55,8.55,0,0,1,2.94,2.87,4,4,0,0,0,.49.75,7.86,7.86,0,0,0,.53.68c.19.23.38.41.56.6a3.32,3.32,0,0,1,.53.53l.61.83a5.48,5.48,0,0,0,.6.83,8.33,8.33,0,0,0,1.05.94c.38.3.76.61,1.1.91s.87.71,1.28,1a12.6,12.6,0,0,0,1.36,1,1.17,1.17,0,0,0,.56.19,1.77,1.77,0,0,1,.61.18,5.75,5.75,0,0,0,1.58.53,13.66,13.66,0,0,0,1.62.27l.83.11a5.93,5.93,0,0,0,.83.07,1.27,1.27,0,0,0,.34,0h.57a.21.21,0,0,1,.19.11c.11.08.18.26.18.57a2.19,2.19,0,0,0,0,.64s0,.11.08.15a.38.38,0,0,1,0,.19,1.11,1.11,0,0,1-.08.34c0,.11-.11.26-.15.37-.19.46-.45.68-.75.72a8.47,8.47,0,0,1-1.1.07,2.42,2.42,0,0,1-1-.22,3.2,3.2,0,0,0-.87-.19.21.21,0,0,1-.23,0h-.22a2.24,2.24,0,0,1-.49-.12,8,8,0,0,1-.87-.18l-.83-.23c-.27-.08-.45-.11-.53-.15a1,1,0,0,1-.38-.23.82.82,0,0,0-.41-.22,5.65,5.65,0,0,1-.72-.23,1,1,0,0,1-.64-.34,6.94,6.94,0,0,0-.75-.41,3,3,0,0,1-.72-.46,13.51,13.51,0,0,1-1.36-1.09c-.45-.38-.9-.79-1.32-1.21a1.62,1.62,0,0,1-.26-.34,1.83,1.83,0,0,0-.27-.3,16.07,16.07,0,0,1-1.84-2.26,1,1,0,0,1-.15-.34.84.84,0,0,0-.19-.34c-.19-.26-.49-.64-.83-1.13s-.72-.91-1.1-1.4-.79-.86-1.2-1.24a4.06,4.06,0,0,0-1.06-.68,4,4,0,0,0-1.13-.15Zm14.55,6.3a.55.55,0,0,1-.34.11.71.71,0,0,1-.41,0h-.38a1,1,0,0,0-.34,0,1,1,0,0,1-.34,0c-.07,0-.11-.08-.15-.23a1.63,1.63,0,0,1-.07-.45,1.71,1.71,0,0,1,0-.45,1.17,1.17,0,0,1,0-.3s0-.16,0-.27a10.56,10.56,0,0,1,.08-1.09,9.45,9.45,0,0,0,.08-1.06v-1.13a.27.27,0,0,0,0-.19V220a.28.28,0,0,1,0-.19,2.48,2.48,0,0,1,.08-.49.3.3,0,0,1,.33-.27H254c.15,0,.27,0,.31.08h.37a.53.53,0,0,0,.38,0h.23a.18.18,0,0,1,.11.19.4.4,0,0,1,0,.19.38.38,0,0,0,0,.19s0,.07,0,.18a2.76,2.76,0,0,0,.11.8,5.16,5.16,0,0,1,.07.79,7.53,7.53,0,0,1-.07,1,8.76,8.76,0,0,0-.08,1,3.2,3.2,0,0,0,.08.64,3.88,3.88,0,0,1,.07.79A.36.36,0,0,1,255.31,225.2Zm2.68.19a.13.13,0,0,1-.11,0s-.08,0-.08-.11V225a1.57,1.57,0,0,1,0-.41,1.64,1.64,0,0,0,0-.42,6.84,6.84,0,0,0-.08-.9c0-.31-.07-.61-.07-.91a4.09,4.09,0,0,1,.07-.6,2.8,2.8,0,0,0,.08-.57v-1.51c0-.26.07-.41.22-.49a2.83,2.83,0,0,1,.53-.07h1.06c.19,0,.3,0,.26.11a1,1,0,0,0,0,.34,4.07,4.07,0,0,0,.08.72,4,4,0,0,1,0,.71v.38a1.61,1.61,0,0,0,0,.42.7.7,0,0,0,.08.3,1.27,1.27,0,0,1,0,.34,1.71,1.71,0,0,1,0,.41,1.71,1.71,0,0,0,0,.45,3.77,3.77,0,0,0,0,.65v1a.19.19,0,0,1-.16.18l-.37.12-.42.11a1.12,1.12,0,0,1-.3,0H258Z" transform="translate(-208.16 -167.98)"/><path class="cls-2" d="M265.57,215.88s-.15,0-.3,0a5.23,5.23,0,0,1-.79,0,7.13,7.13,0,0,0-.8,0,4.36,4.36,0,0,0-.64,0,3.77,3.77,0,0,1-.67,0c-.08,0-.12,0-.16,0a5.91,5.91,0,0,0-.34-2A12.69,12.69,0,0,0,261,212a4.08,4.08,0,0,0-.68-.91l-.83-.83-.83-.83c-.3-.26-.6-.52-.94-.79h-.19a7.82,7.82,0,0,0-1-.83c-.38-.22-.75-.45-1.09-.68a3,3,0,0,1-.68-.49,3.2,3.2,0,0,0-.68-.49,9.67,9.67,0,0,1-1.13-.79,9,9,0,0,1-1.13-1,5.28,5.28,0,0,1-.94-1.13,4.16,4.16,0,0,1-.57-1.28,2.84,2.84,0,0,1-.11-.46,2.69,2.69,0,0,1-.08-.45,5.05,5.05,0,0,1,.11-1,6.57,6.57,0,0,0,.16-.94v-.49a.76.76,0,0,1,.11-.34c.07-.15.15-.3.26-.49s.19-.3.3-.41a1.76,1.76,0,0,0,.19-.27,1.77,1.77,0,0,1,.19-.23.41.41,0,0,0,.19-.18,27.42,27.42,0,0,1,2-2.64,8.67,8.67,0,0,1,2.56-2c.12,0,.3-.11.53-.34l.45-.45.42-.42a3.79,3.79,0,0,1,.41-.37l.53-.38a8.61,8.61,0,0,0,.75-.53,4.47,4.47,0,0,0,.68-.53c.19-.19.31-.3.31-.41a.44.44,0,0,0-.16-.34,1.88,1.88,0,0,0-.3-.27,3.79,3.79,0,0,1-.41-.37,2.53,2.53,0,0,1-.42-.38,7.42,7.42,0,0,1-.41-.64,5.66,5.66,0,0,1-.49-.83,5,5,0,0,1-.42-.91,1.92,1.92,0,0,1-.19-.67.4.4,0,0,1,.19-.31,2.8,2.8,0,0,1,.34-.15,3.79,3.79,0,0,0,.61-.19,3.18,3.18,0,0,1,.6-.18l.34-.08a.27.27,0,0,1,.26.23,2.66,2.66,0,0,0,.12.41,8,8,0,0,0,.79,1.55,2.72,2.72,0,0,0,1.36,1,3.18,3.18,0,0,0,.6.18,1.61,1.61,0,0,0,.6.12,1.11,1.11,0,0,0,.57-.15,1.45,1.45,0,0,1,.56-.12.83.83,0,0,1,.46.19,5.76,5.76,0,0,1,.45.42,3.56,3.56,0,0,1,.3.53,1.29,1.29,0,0,1,.11.49.88.88,0,0,1-.26.64,3.64,3.64,0,0,1-.68.6,8,8,0,0,1-.75.49c-.27.19-.49.3-.68.42a1.17,1.17,0,0,0-.38.33,2.18,2.18,0,0,1-.45.31c-.42.18-.79.41-1.21.6a10.22,10.22,0,0,0-1.17.75,3.09,3.09,0,0,0-.34.31,3.79,3.79,0,0,0-.41.37c-.15.15-.3.27-.42.38a1.26,1.26,0,0,1-.3.23,1.24,1.24,0,0,1-.34.18,1.41,1.41,0,0,0-.38.27,2.32,2.32,0,0,0-.26.3,1.92,1.92,0,0,1-.26.34,1.52,1.52,0,0,1-.61.38,2.14,2.14,0,0,0-.6.41c-.26.27-.6.64-1,1.1a13.83,13.83,0,0,0-1.06,1.47,9.81,9.81,0,0,0-.86,1.58,3.52,3.52,0,0,0-.34,1.4l0,.15a4.74,4.74,0,0,0,.8,1.2,9.14,9.14,0,0,0,1,1,6.21,6.21,0,0,1,.57.49,2.48,2.48,0,0,0,.6.49,4.78,4.78,0,0,0,.68.34c.23.11.45.23.64.34a3.84,3.84,0,0,1,.6.42,2,2,0,0,0,.61.34,1.07,1.07,0,0,1,.26.11l.27.11a3.05,3.05,0,0,1,.94.79,3.19,3.19,0,0,0,.9.83c.34.19.65.42,1,.61a3.42,3.42,0,0,1,.83.75,3.82,3.82,0,0,1,.34.49,3.64,3.64,0,0,0,.31.53c.22.34.41.64.6.9s.34.64.53,1,.22.46.37.76.27.68.38,1,.19.68.3,1a3.6,3.6,0,0,1,.12.79A.62.62,0,0,1,265.57,215.88Zm.75-18c-.11,0-.18,0-.22,0-.27,0-.45,0-.49-.15a1,1,0,0,1-.11-.57s0-.07,0-.15a.92.92,0,0,0,.08-.26s0-.11.07-.15a.15.15,0,0,1,0-.12c0-.07,0-.15,0-.18,0-.34-.11-.64-.15-1a7.15,7.15,0,0,1-.08-.95,3.94,3.94,0,0,1,0-.68,3.18,3.18,0,0,0,0-.64v-.45a1.2,1.2,0,0,1,0-.38c0-.26.08-.41.26-.45a2.73,2.73,0,0,1,.57,0h.3c.49,0,.79.12.91.38a4.36,4.36,0,0,1,.11,1.06v1.5l-.11.16a3.93,3.93,0,0,1,.07.6v1.85a.8.8,0,0,1,0,.26.43.43,0,0,1-.15.26.17.17,0,0,1-.15.08.38.38,0,0,1-.19,0Zm5.06.07a1,1,0,0,0-.34,0,1,1,0,0,1-.34,0c-.23,0-.34-.08-.38-.19a1.44,1.44,0,0,1,0-.45,8,8,0,0,1,0-1v-.95a3.08,3.08,0,0,1,0-.6,3,3,0,0,0,0-.6,3.18,3.18,0,0,0,0-.64,3.21,3.21,0,0,1-.08-.65.91.91,0,0,1,0-.3,1.17,1.17,0,0,1,0-.37c0-.12.08-.23.11-.34a.21.21,0,0,1,.23-.15h.19a17.18,17.18,0,0,1,.34.07h.37a.38.38,0,0,0,.19,0h.15c.15,0,.27.12.38.34a4,4,0,0,1,.19.79,6.71,6.71,0,0,1,0,.87v1.85a1.12,1.12,0,0,1-.08.38.78.78,0,0,0-.11.41,2.31,2.31,0,0,0,.07.49,1.79,1.79,0,0,1,.08.49v.38c0,.08-.11.11-.3.11Z" transform="translate(-208.16 -167.98)"/><path class="cls-1" d="M315.09,225.09a2,2,0,0,1-.18.88,2,2,0,0,1-.51.63,2.24,2.24,0,0,1-.74.37,2.94,2.94,0,0,1-.91.13,3.86,3.86,0,0,1-.61,0,4.29,4.29,0,0,1-.49-.13,3.17,3.17,0,0,1-.36-.16,1.16,1.16,0,0,1-.21-.15.38.38,0,0,1-.09-.18,1.68,1.68,0,0,1,0-.35,1.85,1.85,0,0,1,0-.25.35.35,0,0,1,0-.16.14.14,0,0,1,.06-.1l.08,0a.32.32,0,0,1,.19.08l.32.18a3.14,3.14,0,0,0,.47.17,2,2,0,0,0,.63.09,1.42,1.42,0,0,0,.42-.06.91.91,0,0,0,.31-.16.69.69,0,0,0,.2-.25.77.77,0,0,0,.07-.34.59.59,0,0,0-.12-.37,1.31,1.31,0,0,0-.3-.27,3.45,3.45,0,0,0-.43-.23l-.49-.22a4.82,4.82,0,0,1-.5-.27,1.57,1.57,0,0,1-.42-.35,1.64,1.64,0,0,1-.31-.49,1.76,1.76,0,0,1-.12-.68,1.85,1.85,0,0,1,.17-.8,1.51,1.51,0,0,1,.46-.57,1.84,1.84,0,0,1,.67-.34,3.12,3.12,0,0,1,.82-.11,3.4,3.4,0,0,1,.45,0c.15,0,.29.06.42.09a2.32,2.32,0,0,1,.35.14.92.92,0,0,1,.2.12l.06.08a.12.12,0,0,1,0,.09.59.59,0,0,1,0,.14c0,.06,0,.13,0,.22s0,.17,0,.24a.76.76,0,0,1,0,.16.13.13,0,0,1-.05.09.11.11,0,0,1-.08,0,.35.35,0,0,1-.17-.07l-.29-.15-.39-.15a2,2,0,0,0-.5-.06,1.25,1.25,0,0,0-.36.05.69.69,0,0,0-.27.14.48.48,0,0,0-.15.22.59.59,0,0,0-.05.27.61.61,0,0,0,.11.36,1.18,1.18,0,0,0,.31.27,3,3,0,0,0,.44.23l.49.22a4.82,4.82,0,0,1,.5.27,2.51,2.51,0,0,1,.44.35,1.74,1.74,0,0,1,.3.49A1.69,1.69,0,0,1,315.09,225.09Z" transform="translate(-208.16 -167.98)"/><path class="cls-1" d="M328.36,224.63a3,3,0,0,1-.17,1,2.12,2.12,0,0,1-.51.78,2.15,2.15,0,0,1-.82.48,3.22,3.22,0,0,1-1.12.17,3.55,3.55,0,0,1-1.07-.15,2.09,2.09,0,0,1-.8-.45,2,2,0,0,1-.5-.75,2.91,2.91,0,0,1-.17-1.06v-3.84a.12.12,0,0,1,0-.09.2.2,0,0,1,.1-.07l.2,0,.31,0,.31,0,.19,0a.23.23,0,0,1,.11.07.12.12,0,0,1,0,.09v3.73a2.13,2.13,0,0,0,.09.65,1.13,1.13,0,0,0,.27.45,1,1,0,0,0,.41.28,1.57,1.57,0,0,0,.54.09,1.35,1.35,0,0,0,.55-.1,1,1,0,0,0,.4-.27,1.2,1.2,0,0,0,.26-.44,1.78,1.78,0,0,0,.09-.59v-3.8a.12.12,0,0,1,0-.09.2.2,0,0,1,.1-.07l.2,0,.31,0,.3,0,.2,0a.26.26,0,0,1,.1.07.12.12,0,0,1,0,.09Z" transform="translate(-208.16 -167.98)"/><path class="cls-1" d="M341.94,221.65a1.69,1.69,0,0,1,0,.25.38.38,0,0,1,0,.16.12.12,0,0,1-.05.08.11.11,0,0,1-.08,0,.45.45,0,0,1-.2-.09l-.38-.19a4,4,0,0,0-.56-.19,2.86,2.86,0,0,0-.75-.09,2.15,2.15,0,0,0-.83.16,2,2,0,0,0-.64.45,2,2,0,0,0-.4.7,2.57,2.57,0,0,0-.15.9,2.75,2.75,0,0,0,.15,1,1.8,1.8,0,0,0,.4.69,1.55,1.55,0,0,0,.62.42,2.12,2.12,0,0,0,.81.15,2,2,0,0,0,.42-.05,1.66,1.66,0,0,0,.39-.15v-1.46h-1.19a.16.16,0,0,1-.14-.11,1.11,1.11,0,0,1-.05-.38,1.62,1.62,0,0,1,0-.23.54.54,0,0,1,0-.15l.06-.08a.11.11,0,0,1,.08,0h2.13a.32.32,0,0,1,.14,0l.11.08a.54.54,0,0,1,.07.13.88.88,0,0,1,0,.17v2.52a.55.55,0,0,1-.05.26.34.34,0,0,1-.21.17c-.11,0-.24.09-.39.13a3.89,3.89,0,0,1-.49.12,4.18,4.18,0,0,1-.51.07,4.36,4.36,0,0,1-.51,0,4.08,4.08,0,0,1-1.36-.22,2.89,2.89,0,0,1-1-.63,2.62,2.62,0,0,1-.63-1,3.73,3.73,0,0,1-.22-1.34,3.88,3.88,0,0,1,.23-1.4,3.13,3.13,0,0,1,.66-1.05,3,3,0,0,1,1-.66,3.92,3.92,0,0,1,1.36-.23,4.18,4.18,0,0,1,.74.06,3.43,3.43,0,0,1,.59.14,2.14,2.14,0,0,1,.42.17.81.81,0,0,1,.23.16.39.39,0,0,1,.1.19A1.77,1.77,0,0,1,341.94,221.65Z" transform="translate(-208.16 -167.98)"/><path class="cls-1" d="M355.54,224.63a2.8,2.8,0,0,1-.18,1,2,2,0,0,1-.5.78,2.15,2.15,0,0,1-.82.48,3.22,3.22,0,0,1-1.12.17,3.55,3.55,0,0,1-1.07-.15,2.09,2.09,0,0,1-.8-.45,1.87,1.87,0,0,1-.5-.75,2.91,2.91,0,0,1-.18-1.06v-3.84a.12.12,0,0,1,0-.09.23.23,0,0,1,.11-.07l.2,0,.31,0,.31,0,.19,0a.23.23,0,0,1,.11.07.12.12,0,0,1,0,.09v3.73a2.13,2.13,0,0,0,.09.65,1.13,1.13,0,0,0,.27.45,1,1,0,0,0,.41.28,1.53,1.53,0,0,0,.54.09,1.33,1.33,0,0,0,.54-.1,1,1,0,0,0,.41-.27,1.2,1.2,0,0,0,.26-.44,1.78,1.78,0,0,0,.09-.59v-3.8a.2.2,0,0,1,0-.09.23.23,0,0,1,.11-.07l.2,0,.31,0,.3,0,.19,0a.23.23,0,0,1,.11.07.12.12,0,0,1,0,.09Z" transform="translate(-208.16 -167.98)"/><path class="cls-1" d="M377.57,221.2a1.77,1.77,0,0,1,0,.24.53.53,0,0,1,0,.16.15.15,0,0,1-.06.09.11.11,0,0,1-.08,0H375.8v5.09a.14.14,0,0,1,0,.09.17.17,0,0,1-.11.06l-.19,0-.31,0-.31,0-.2,0a.17.17,0,0,1-.11-.06.14.14,0,0,1,0-.09v-5.09h-1.58a.11.11,0,0,1-.08,0,.15.15,0,0,1-.06-.09.53.53,0,0,1,0-.16,1.77,1.77,0,0,1,0-.24,1.85,1.85,0,0,1,0-.25.71.71,0,0,1,0-.17.1.1,0,0,1,.06-.08.11.11,0,0,1,.08,0h4.45a.11.11,0,0,1,.08,0,.1.1,0,0,1,.06.08.71.71,0,0,1,0,.17A1.85,1.85,0,0,1,377.57,221.2Z" transform="translate(-208.16 -167.98)"/><path class="cls-1" d="M390.11,226.51a1.83,1.83,0,0,1,.08.28.17.17,0,0,1,0,.15.3.3,0,0,1-.19.07h-.77a.58.58,0,0,1-.21,0,.14.14,0,0,1-.1-.06.31.31,0,0,1-.05-.1l-.43-1.27H386l-.4,1.23a.33.33,0,0,1-.05.12.26.26,0,0,1-.1.07.88.88,0,0,1-.2,0h-.34l-.36,0a.25.25,0,0,1-.17-.07.2.2,0,0,1,0-.16,1,1,0,0,1,.07-.27l1.95-5.61a.81.81,0,0,1,.06-.13.32.32,0,0,1,.13-.08.78.78,0,0,1,.24,0h.86a.88.88,0,0,1,.26,0,.3.3,0,0,1,.14.08.52.52,0,0,1,.07.15Zm-2.9-4.63h0l-.9,2.68h1.8Z" transform="translate(-208.16 -167.98)"/><path class="cls-1" d="M402.74,225.09a1.9,1.9,0,0,1-.1.61,1.51,1.51,0,0,1-.25.49,1.67,1.67,0,0,1-.39.36,2.92,2.92,0,0,1-.5.25,3.63,3.63,0,0,1-.59.14,4.75,4.75,0,0,1-.69.05h-1.68a.36.36,0,0,1-.27-.1.39.39,0,0,1-.11-.31v-5.5a.39.39,0,0,1,.11-.31.36.36,0,0,1,.27-.1h1.59a3.94,3.94,0,0,1,1,.1,1.84,1.84,0,0,1,.68.29,1.27,1.27,0,0,1,.42.5,1.62,1.62,0,0,1,.15.72,1.54,1.54,0,0,1-.06.43,1.24,1.24,0,0,1-.17.37,1.28,1.28,0,0,1-.28.29,1.63,1.63,0,0,1-.37.21,1.41,1.41,0,0,1,.5.17,1.3,1.3,0,0,1,.39.31,1.68,1.68,0,0,1,.27.45A1.81,1.81,0,0,1,402.74,225.09Zm-1.66-2.66a.93.93,0,0,0-.06-.34.64.64,0,0,0-.18-.25.73.73,0,0,0-.29-.15,1.56,1.56,0,0,0-.48-.06h-.65v1.64h.72a1.33,1.33,0,0,0,.44-.06,1.12,1.12,0,0,0,.28-.18.74.74,0,0,0,.16-.27A.92.92,0,0,0,401.08,222.43Zm.32,2.71a1,1,0,0,0-.07-.4.77.77,0,0,0-.22-.29,1.21,1.21,0,0,0-.36-.18,2.16,2.16,0,0,0-.57-.06h-.76V226h.93a1.44,1.44,0,0,0,.45-.06.9.9,0,0,0,.32-.17.71.71,0,0,0,.21-.27A.87.87,0,0,0,401.4,225.14Z" transform="translate(-208.16 -167.98)"/><path class="cls-1" d="M414.67,226.49a1.55,1.55,0,0,1,0,.23,1.57,1.57,0,0,1,0,.16.28.28,0,0,1-.06.08l-.09,0h-3.17a.36.36,0,0,1-.27-.1.39.39,0,0,1-.11-.31v-5.5a.39.39,0,0,1,.11-.31.36.36,0,0,1,.27-.1h3.15l.08,0a.2.2,0,0,1,.06.09.53.53,0,0,1,0,.16,1.63,1.63,0,0,1,0,.24,1.55,1.55,0,0,1,0,.23.54.54,0,0,1,0,.15.2.2,0,0,1-.06.09.11.11,0,0,1-.08,0h-2.25v1.54h1.91a.13.13,0,0,1,.08,0,.18.18,0,0,1,.06.08.54.54,0,0,1,0,.15c0,.06,0,.14,0,.23s0,.17,0,.24a.54.54,0,0,1,0,.15l-.06.08-.08,0h-1.91V226h2.27l.09,0,.06.08s0,.1,0,.16A1.63,1.63,0,0,1,414.67,226.49Z" transform="translate(-208.16 -167.98)"/><path class="cls-2" d="M243.13,237.92a35,35,0,1,1,35-35A35,35,0,0,1,243.13,237.92Zm0-66.94a32,32,0,1,0,32,32A32,32,0,0,0,243.13,171Z" transform="translate(-208.16 -167.98)"/></svg>