<svg id="レイヤー_1" data-name="レイヤー 1" xmlns="http://www.w3.org/2000/svg" viewBox="0 0 29.54 62.12"><defs><style>.cls-1{fill:#f18b1a;}.cls-1,.cls-3{stroke:#231815;stroke-miterlimit:10;stroke-width:0.5px;}.cls-2{fill:#6dba3b;}.cls-3{fill:none;}</style></defs><path class="cls-1" d="M145.26,179.37c-3.49,15.21-2.33,28.45,2.6,29.58s11.76-10.27,15.26-25.47S148.76,164.17,145.26,179.37Z" transform="translate(-143 -147.16)"/><path class="cls-2" d="M166.91,153.11a7.06,7.06,0,0,0-3.66.11c-.11-3-1.33-5.29-3.26-5.74-2.64-.6-5.61,2.51-6.63,7a5.79,5.79,0,0,0-7.09,4.07,5.22,5.22,0,0,0,.3,3.25,6.12,6.12,0,0,0-1.33,2.64,5.84,5.84,0,0,0,4.19,7.1,4.8,4.8,0,0,0,1,.13,6.75,6.75,0,0,0,10.14,2.88l.08,0a6.46,6.46,0,0,0,7.91-4.54,6,6,0,0,0-.91-4.68,6.23,6.23,0,0,0,4.49-4.54A6.56,6.56,0,0,0,166.91,153.11ZM156.5,163.76l.13-.12a3.31,3.31,0,0,0,1.17-.09,3.12,3.12,0,0,0-.4.32A6.91,6.91,0,0,0,156.5,163.76Zm3.35-1.21-.37.11.29-.23A.83.83,0,0,0,159.85,162.55Z" transform="translate(-143 -147.16)"/><path class="cls-3" d="M166.91,153.11a7.06,7.06,0,0,0-3.66.11c-.11-3-1.33-5.29-3.26-5.74-2.64-.6-5.61,2.51-6.63,7a5.79,5.79,0,0,0-7.09,4.07,5.22,5.22,0,0,0,.3,3.25,6.12,6.12,0,0,0-1.33,2.64,5.84,5.84,0,0,0,4.19,7.1,4.8,4.8,0,0,0,1,.13,6.75,6.75,0,0,0,10.14,2.88l.08,0a6.46,6.46,0,0,0,7.91-4.54,6,6,0,0,0-.91-4.68,6.23,6.23,0,0,0,4.49-4.54A6.56,6.56,0,0,0,166.91,153.11ZM156.5,163.76l.13-.12a3.31,3.31,0,0,0,1.17-.09,3.12,3.12,0,0,0-.4.32A6.91,6.91,0,0,0,156.5,163.76Zm3.35-1.21-.37.11.29-.23A.83.83,0,0,0,159.85,162.55Z" transform="translate(-143 -147.16)"/><path class="cls-3" d="M151.79,192.92l7.18,2.42" transform="translate(-143 -147.16)"/><path class="cls-3" d="M149.15,200.37a9,9,0,0,0,6.67,2.19" transform="translate(-143 -147.16)"/><path class="cls-3" d="M154.83,183.28a41.18,41.18,0,0,0,6.34,2.33" transform="translate(-143 -147.16)"/></svg>